<?xml version="1.0" encoding="utf-8"?>
<!-- Generator: Adobe Illustrator 22.0.1, SVG Export Plug-In . SVG Version: 6.00 Build 0)  -->
<svg version="1.1" id="Capa_1" xmlns="http://www.w3.org/2000/svg" xmlns:xlink="http://www.w3.org/1999/xlink" x="0px" y="0px"
	 viewBox="0 0 984.4 818.8" enable-background="new 0 0 984.4 818.8" xml:space="preserve">
<rect fill="#FFFFFF" width="984.4" height="818.8" fill-opacity="0"/>
<g>
	<path fill="#DDD8AB" d="M270.8,591.8c-4.2-8.6-7.3-17.7-10.1-26.9c-4-13.1-6.8-26.4-8.5-40c-0.8-6.1-1.3-12.2-1.5-18.3
		c-0.3-7.1-0.4-14.2-0.1-21.3c0.6-14.5,2.5-28.9,5.6-43.1c4.5-20.2,11.4-39.4,20.8-57.8c8.4-16.4,18.6-31.6,30.5-45.8
		c18.4-21.9,40.1-39.8,64.9-54c11.9-6.9,24.4-12.6,37.4-17.3c0.8-0.3,1.7-0.5,2.5-0.7c0.4,2.1-1.2,3.2-2.2,4.4
		c-1.7,2.1-3.8,3.9-5.7,5.8c-0.6,0.6-1.2,1-1.8,2.2c2.9,0.5,5.6,0.6,8.3-0.1c2.4-0.6,4.7-1.6,6.9-2.8c0.8-0.4,1.8-1.1,2.7-0.5
		c1,0.7,0.7,1.8,0.7,2.9c-0.6,7.6-2.9,14.5-7.9,21c2.2-0.1,3.8-0.9,5.3-1.7c1.5-0.8,3-1.8,4.5-2.7c2.2-1.3,3-0.9,3,1.7
		c0,5.1-1.5,9.8-4,14.2c-0.6,1.1-1.3,2.2-2.2,3.5c5.4-1.6,9.7-4.3,13.6-7.8c0.9-0.8,1.8-2.4,3.1-1.7c1.5,0.7,0.5,2.3,0.5,3.5
		c0,0.9-0.2,1.9-0.5,3c1.8-1.4,3.1-2.9,4.4-4.4c0.4-0.5,0.8-1.2,1.5-1c0.8,0.2,1,1,1.1,1.7c0.2,0.8,0.3,1.6,0.2,2.4
		c-0.1,1,0.1,2-0.4,3c-0.6,0.9-1.5,1.1-2.4,1.5c-8.7,3-16.4,7.7-22.7,14.3c-5.5,5.7-9.4,12.5-12,20c-3.4,10.2-5.9,20.6-6.8,31.3
		c-0.2,2.4-0.2,4.8-0.8,7.1c-0.2,0.8-0.2,1.8,0.3,2.6c0.3,0.7,1,1.1,1.2,1.9c-1.6,6.3-1.5,12.8-1.5,19.3c0,1.9-1.1,3.5-2,5.1
		c-3.6,6.4-6.5,13-7.6,20.3c-0.8,5.4-0.5,10.8,0.4,16.2c0.3,1.9-0.1,3.4-1.4,4.8c-4.8,5.2-8.1,11.1-9.1,18.1
		c-0.5,3.6-0.6,7.2,0.4,10.7c0.5,1.8,1.3,3.5,3.4,3.9c0.5,0.1,0.9,0.4,1,1c-0.3,1-1.2,1.5-1.9,2.2c-5,4.8-9.8,9.9-13.4,15.9
		c-3.7,6.1-4.6,12.9-4.7,19.8c-0.2,7,0.3,13.9,1.3,20.8c0.2,1.6,0.5,3.2,0.3,4.8c-0.4,2.6-0.2,5.2-0.1,7.9c0.1,4.9,0.1,9.9,0,14.8
		c0,0.7-0.1,1.4-0.4,2.1c-0.7,1.3-2.1,1.4-3.3,1.5c-16.4,1.9-32.8,4.2-49.2,6.2c-12.4,1.5-24.8,2.6-37.1,4.7
		C273.7,592.2,272.2,592.8,270.8,591.8z"/>
	<path fill="#DDD8AB" d="M645.7,308c3.4,2.3,6.3,5.1,9.3,7.9c15.6,14.4,29.4,30.4,40.9,48.4c16.9,26.5,28.3,55.2,34.1,86.1
		c1.9,9.9,3,20,3.6,30.1c0.8,14.9,0.4,29.7-1.5,44.4c-3.8,30.5-13.2,59.1-27.8,86.1c-8.6,15.8-19,30.5-31,44
		c-17.7,20-38.1,36.6-61.2,49.8c-23.3,13.3-48.1,22.6-74.5,27.5c-10.4,1.9-20.8,3.2-31.3,3.9c-8.4,0.6-16.8,0.6-25.2,0.2
		c-20.9-1-41.3-4.6-61.3-10.8c-12.7-4-25-8.8-36.8-14.9c0.7-0.8,1.7-0.9,2.6-1.1c46.3-11.1,92.7-22.1,139-33.4
		c20.3-4.9,40.5-9.9,60.8-14.7c13.1-3.1,26.2-6.5,39.4-9.4c5.4-1.3,10.8-2.4,16.1-3.7c10.1-0.6,17.5-6.6,25-12.5
		c1.7-1.3,2.8-3,2.9-5.3c0-0.4,0-0.8,0-1.2c0.1-4.6-0.8-5.8-5.3-7.1c-0.2-0.1-0.4-0.3-0.5-0.5c-0.3-1.3,0.1-2.7,0-4
		c0-2.3-1-4.2-2.7-5.8c-0.4-2-0.7-4,0.9-5.6c2.7-1,5.5-0.7,8.3-0.1c3.9,0.9,4.6,0.3,4.2-3.8c-1.1-10.4-2.8-20.8-4.3-31.1
		c-1.4-9.8-2.3-19.7-2.2-29.6c0.1-9.3-0.6-18.5-0.5-27.8c0.1-21.4,2.7-42.4,7.2-63.3c2.3-10.6,4.2-21.3,3.9-32.3
		c-0.2-8-1.2-15.9-3.3-23.7c-0.4-1.5-0.8-2.9-1.1-4.4c-0.4-2.3-2-4.3-1.9-6.7c3-1.8,2.3-4.4,1.7-7.1c-1.1-4.8-2.1-9.7-3.2-14.5
		c-2.3-10.3-7.4-19.2-13.6-27.6c-5.1-7-8.8-14.6-11.2-23C645.2,310.2,644.6,309,645.7,308z"/>
	<path fill="#C0BB94" d="M625,652.7c-7.2,1.7-14.4,3.5-21.5,5.2c-16.8,4.1-33.6,8.1-50.4,12.2c-18.5,4.5-37,9.1-55.5,13.5
		c-15.3,3.7-30.7,7.2-46,10.9c-14.6,3.5-29.1,7-43.6,10.5c-7.5,1.8-15,3.6-22.5,5.4c-0.8,0.2-1.6,0.2-2.4,0.3
		c-17.4-8.7-33.4-19.4-48.2-32c-17.2-14.7-32.1-31.6-44.7-50.5c-7.4-11.2-13.7-23.1-19.1-35.4c-0.2-0.4-0.2-0.8-0.3-1.1
		c6.3-0.8,12.6-1.7,18.9-2.5c4.7-0.6,9.5-1.2,14.2-1.8c5.8-0.7,11.5-1.3,17.3-2c5.8-0.7,11.5-1.6,17.2-2.3c8.3-1,16.6-2,24.8-3
		c0.4,0,0.7-0.3,1.1-0.4c1.6,2.6,0.7,5.4,0.7,8.1c-3.8,9.4-8.3,18.5-11.9,28c-2,5.3-1.5,12.1,3,15.9c4.3,3.7,5.4,8.5,4,13.9
		c-1,4-2.7,7.9-4.1,11.8c-2.3,6.3-1.3,12.2,1.7,18c1.8,3.7,4.8,5.6,8.7,6.4c8.3,1.6,15.6-0.3,22-5.8c0.9-0.8,1.7-2,3.1-2
		c3.8,1.9,8,1.9,12.1,2.1c0.3,0.1,0.6,0.1,0.9,0.4c4.3,3.6,9.5,4.7,14.9,5.4c7,0.9,13.3-1,18.5-5.9c8.7-8.3,14.3-18.4,17.3-30
		c0.4-1.5,0.4-3-0.1-4.5c-0.1-1.3-0.8-2.6,0.1-3.9c2.5-1.1,5.1,0.2,7.6,0.1c4.3,0.9,8.2,0.7,12.1-1.9c5.7-3.9,11.8-7.2,17.7-11
		c0.8-0.6,1.6-1.3,2.8-1.2c5.1-0.4,10.1-1.4,15.1-2.3c20.5-3.4,40.8-7.4,61.4-10.3c7-1,13.9-2.3,20.5-4.8c0.8-0.3,1.6-0.7,2.5-0.4
		c1.3,1.1,0,1.7-0.6,2.2c-2.8,2.1-5.8,4-9.3,4.8c-0.8,0.2-1.5,0.4-2.3,0.6c-2.8,0.6-5,2-5.9,5c-0.1,0.5-0.4,0.8-0.8,1.2
		c-1,0.9-2.1,1.5-3.2,2.2c-2.5,1.4-4.1,3.5-5.2,6.1c-1.1,2.6-0.9,4.9,1.3,6.7c3,2.5,6.3,4.3,10.3,4.6c3.3,0.3,6.5,0.5,9.8,1
		c4.2,0.6,8.3,1.8,12.1,3.7c6.8,3.5,13.8,6.6,21.5,7.8C623.4,651.7,624.4,651.8,625,652.7z"/>
	<path fill="#F2B577" d="M607.4,135.7c1.2,0.5,2,1.4,2.7,2.6c5.9,10.3,7.9,21.4,6.9,33.2c-0.7,8.9-3,17.3-7.7,24.9
		c-0.3,0.5-0.7,0.9-1,1.3c-11.9-1.5-20.6-8.5-28.5-16.7c-1.1,0.6-0.4,2-1.6,2.3c-1.1-0.6-0.9-1.8-1-2.7c0-2.1-0.4-4.1-0.8-6.1
		c-0.7-3.3-1.6-3.8-4.9-3.8c-1.9-0.4-3.4,0.2-4.8,1.5c-2.3,2.2-4.4,4.6-6.4,7.1c-1.5,2-3.3,2.4-5.7,1.8c-4.9-1.4-9.6-3.1-14.2-5.1
		c-1.8-0.8-2.6-1.9-2.5-3.9c0.2-7.3,2.1-14,5.5-20.4c7.2-13.4,17.7-23.6,31-30.9c1.1-0.6,2.4-0.9,3.5-1.4c1.3,0.2,2.7,0.3,4,0.5
		c1.9-0.4,3,1.1,4,2.1c5.6,5.2,11.9,9.2,19,12.1C605.9,134.5,606.7,135,607.4,135.7z"/>
	<path fill="#DDD8AC" d="M508.3,252.9c2.3,1.5,5,0.9,7.5,1.1c16.6,1.6,32.7,5.2,48.7,9.8c0.7,0.9,0.1,1.8-0.1,2.7
		c-0.7,3.7-0.7,7.4-0.2,11.1c0.6,3.4,1.4,6.8,1.4,10.3c-0.5,4.4-3,6.2-7.2,7.5c-7.2,2.2-13.4,6.5-19.4,11.1c-1.7,1.3-3,3.1-4.2,4.9
		c-1.4,1.1-3.2,1-4.9,1.5c-1.1,0-2.1-0.6-3.1-1c-2-0.7-3.9-1.1-5.9-0.3c-0.9,1.2-2,1.6-3.5,1.5c-1.3-0.1-2.5-0.3-3.8-0.4
		c-5.9-0.7-8.8,1.2-10.7,6.7c-0.9,0.9-1.8,0.2-2.6-0.2c-3.8-2.1-7.7-4.1-11.4-6.3c-1.3-0.8-2.8-1.1-4.1-2c-0.7-0.5-1.5-1-1.6-2
		c0.2-0.7,0.8-1,1.3-1.2c5.7-2.9,9.1-7.5,10.4-13.7c0.4-2,0.7-4.1,1-6.1c0.3-1.9,0.4-3.8-0.8-5.5c0.4-1.2,0.1-2.5,0-3.7
		c0.1-0.6,0.2-1.2,0.9-1.4c1,1,1.6,0.7,2.3-0.4c2.5-3.5,4.4-7.3,5.7-11.4c1.1-3.4,1.9-6.9,2.8-10.3
		C507.2,254.3,507,253.2,508.3,252.9z"/>
	<path fill="#ADBC8A" d="M613.5,215.5c3.2,2.7,6.8,4.7,10.4,6.8c3.9,2.3,7.5,4.9,11,7.6c1.2,0.9,2.1,2.1,2.7,3.6
		c1.9,5.3,3.6,10.6,4.2,16.2c1.1,10.6,2.5,21.2,5.3,31.6c-0.4,0.5-1,0.6-1.5,0.6c-8-0.3-15.9-0.4-23.9-1c-2.7-0.2-5.4,0.4-8-0.7
		c-1.8-2.5-0.6-5.1-0.4-7.6c-1.2,8.7-2.7,17.3-3.7,26.1c-0.8,7.1-0.8,14.2-1.3,21.2c-0.1,1.7,0.7,3.5-0.2,5.2
		c-3,1.9-6.3,1.4-9.5,1.3c-0.3-0.2-0.6-0.6-0.3-0.7c1.9-1.3,1.2-3,0.9-4.7c-1.6-9.5-4.7-18.5-7.5-27.6c-1.1-3.4-1-3.5,2.2-4.5
		c0.7-1,0.9-2.1,0.8-3.2c-0.2-3.5,0.5-7,1.1-10.4c0.5-3.1,0.5-3.1-2.3-4.5c-0.4-0.2-0.7-0.4-1-0.7c-1.2-2-0.3-4.2-0.8-6.5
		c-0.4,0.3-0.6,0.8-0.9,1.2c-0.9,1-1.8,1.1-2.4-0.2c-0.7-1.4-1.9-2.6-2.1-4.2c0.2-2.6,0.2-5.2,0.2-7.9c0-1.4,0.3-2.7,0.9-3.9
		c3.2-4.9,7.4-9,11.1-13.5c3.4-4.1,6.9-8.2,10.4-12.3C610.5,220.4,611.8,217.8,613.5,215.5z"/>
	<path fill="#ADBC8A" d="M645.7,308c0.2,4.4,2,8.3,3.7,12.3c2.7,6.3,6.6,12,10.6,17.6c6.7,9.4,10.8,20,12.6,31.4
		c0.5,3.3,1.3,6.5,2.1,9.8c0.6,2.7-0.2,3.8-2.6,4.4c-1.1,1.2-2.6,1.5-4.1,1.9c-5.3,1.4-10.6,2.3-16.1,2.7c-15.3,1.2-30.6,2-45.9,3.9
		c-3.8,0.5-4.4,0-4.5-3.8c-0.1-9.8,0.8-19.7,0.5-29.5c-0.1-2.3,1-3.4,3.2-3.6c4.1-0.7,8.4-1,12.4-2.4c1-0.4,2.1-0.8,3.1-1.3
		c2.2-1,4.6-1,6.8-2.2c3.9-2.1,6.4-5.5,8.4-9.2c1.9-3.5,3.6-7.1,4.8-11c2.6-6.6,3.3-13.5,3.6-20.6c0-1-0.5-2.3,1.2-2.7
		C645.6,306.5,645.7,307.3,645.7,308z"/>
	<path fill="#FEEDD9" d="M645.6,305.8c-0.8,2.8-0.6,5.6-0.8,8.4c-0.4,5.4-1.5,10.5-3.5,15.4c-1.5,2.5-3.5,4.5-5.6,6.5
		c-1.1,1.1-2.4,1.9-3.9,2.3c-7.2,2.1-14.5,3.6-22.1,4.1c-13.9,0.9-27.7-0.5-41.6-1.4c-4.5-0.3-9.1,0.2-13.7-0.2
		c-6.9-0.5-13.7-1.9-20.2-4.7c-2.7-1.2-5.7-1.6-8.1-3.5c-0.2-0.1-0.4-0.2-0.6-0.4c-0.5-0.6-0.6-1.3-0.5-2c0.1-0.4,0.1-0.8,0.5-1
		c0.6-0.3,0.9,0.2,1.2,0.5c1.1,1.3,2.2,2.7,4.3,2.7c-0.2-1.3-1.3-1.7-1.9-2.5c-0.5-0.6-1.3-1.2-0.7-2.1c0.4-0.7,1.3-0.4,2-0.3
		c0.6,0,1.1,0.3,2.2,0.5c-1.9-1.7-3.4-3.1-4.5-4.7c-0.6-0.8-1.1-1.5-1.6-2.4c-0.4-0.7-1.1-1.5-0.5-2.2c0.7-0.8,1.5,0,2.1,0.3
		c1.3,0.6,2.5,1.5,3.8,2.1c0.8,0.4,1.5,0.8,3,0.6c-4-2.2-7.5-4.5-10.9-7c-1.4-1.1-3.5-1.7-3.7-4c2.4-1.1,4.7-0.6,6.9,0.3
		c0.9,0.4,1.8,0.7,2.6,1.1c2.3,1.1,4.7,1.3,7.1,0.3c1.8-0.8,3,0.9,4.5,1c1.3,0.2,1.7,1.1,1.8,2.2c0.1,1.3,0.6,2.5,0.9,3.7
		c0.7,2.9,2.6,3.7,5.3,3.8c0.5-0.6,0.1-1.1-0.1-1.6c-1.9-4.1-4.4-7.9-6.9-11.7c-0.7-1.1-1.7-2-3.2-1.4c-0.9,0.2-0.6,1.2-1,1.7
		c-1,1.1-2.1,1.6-3.6,0.7c1.2-3.4,4-5.3,6.8-7.2c6.3-4.5,12.9-8.5,20.6-10.3c1.4-0.3,1.7-1.3,1.9-2.4c0.2-1,0.2-1.9,1-2.6
		c0.6,0.3,0.9,0.9,1,1.6c0.7,4.6,2.4,8.8,4.2,13c0,1.5-1.2,2-2.3,2.5c-3.4,1.7-6.9,3-10.3,4.5c-1.3,0.5-2.5,1-3.7,1.6
		c-2.1,1.1-2.2,1.3-0.7,3.1c1.2,1.3,2,2.9,3,4.4c2,3.2,4.3,6.2,6.8,9c1.5,1.7,3.2,2.4,5.5,1.8c6.6-1.8,13.3-2.5,20-3.7
		c2.3-0.3,4.7-0.5,7.1-0.7c0.9-0.1,1.9-0.3,2.7,0.5c3.2-0.3,6.4-0.3,9.6-0.9c1-0.9,2.2-0.8,3.4-0.8c2-0.1,4,0.1,5.9-0.4
		c2.6,1.1,5.3,0.7,8,1.1c1.5,0.2,2-0.7,1.8-2.1c-0.6-4.5-0.1-9.1-0.3-13.6c-0.3-6.7,1-13.4,1-20.1c0-1.9,1-2.9,3-2.8
		c4.1,0,8.3,0,12.4,0c1.3,0,2,0.6,1.9,2.1c-0.1,0.8-0.2,1.6,0.2,2.3C645.3,295.7,644.9,300.8,645.6,305.8z"/>
	<path fill="#9A5B52" d="M443.1,310c-0.2-1.2-0.1-2.4-0.7-3.6c-1.9,2.4-3.6,5.1-6.7,6.6c0.4-2.6,0.8-5,1.2-7.4
		c-0.2-0.1-0.3-0.3-0.5-0.4c-2.5,2.4-5.1,4.7-8,6.5c-3,1.9-6.1,3.4-10.1,4c4.6-6.3,7.4-12.9,6.9-20.9c-4.4,2.2-8.1,5.6-13.7,5.9
		c1.1-1.5,2-2.5,2.7-3.6c4-5.8,5.6-12.4,6.2-19.4c0.2-2.1-0.6-1.9-2-1.1c-4.2,2.4-8.7,4-13.7,3.6c-1.3-0.1-2.5-0.3-3.8-0.9
		c4.1-4,8.7-7.5,11.3-12.6c4.1-6.4,5.9-13.5,7.3-20.9c1.3-7,2.9-13.9,7.3-19.6c6.9-8.8,14.9-16.2,26.1-19.2c3.6-1,7.4-1.2,11.2-0.3
		c0,1.8-1.6,2.1-2.7,2.7c-5.5,3-10.5,6.7-15.4,10.6c-11.5,9.1-17.4,21.2-19.1,35.6c0,0.4-0.1,0.8,0,1.2c0,0.2,0,0.5,0.2,0.8
		c0.7-0.3,0.9-1,1.3-1.6c2.4-4.3,5.2-8.3,7.7-12.4c3.5-5.7,8.3-10.2,13.3-14.3c8.3-6.9,17.6-12.4,27.8-16.4c1.6-0.7,3.2-1,4.9-0.3
		c0.1,0,0.2,0,0.3,0.1c0.1,1.3-1,1.5-1.9,1.8c-11,4-20.6,10.5-28.8,18.6c-10.8,10.7-17.7,23.6-19.9,38.8c0.3-2.6,1.3-4.9,2-7.3
		c0.7-2.5,1.8-4.8,2.9-7.1c3.6-7.7,8.1-14.9,14-21.1c0.7-0.8,1.7-2.4,2.8-1.4c0.9,0.8-0.4,2-1,2.9c-3.6,5-6.7,10.2-8.7,15.9
		c-0.6,1.6-1.6,3.2-0.7,5c0.2,0.4-0.1,1-0.4,1.3c-2.3,2.6-2.1,5.9-2.6,9c-0.2,1.2,0.9,2,1.1,3.1c0.4,1.6,0.7,3.3,0.8,5
		c0.1,1.3,0.8,2.2,1.6,3.2c1.3,2.1,2.1,4.6,3.1,6.9c1.4,4.5,1.5,9.3,2,14c0.2,3.4-0.4,6.7-2.6,9.4c-0.6,0.8-1,2.1-2.2,1.8
		C442.8,312.1,443.7,310.7,443.1,310z"/>
	<path fill="#A86258" d="M440.7,272.1c-2.4-4.1-0.7-7.8,1-11.6c0.3-0.7,1.9-1.3,0.2-2.3c-0.5-0.3,0.1-1.2,0.3-1.8
		c2.3-6.9,5.6-13.2,9.9-19c0.5-0.7,1-1.4,1.6-2.3c-3.2,1.5-8.7,8.4-13.9,17.8c-3.7,6.6-6.1,13.8-8.1,21.6c-0.4-2,0.2-7.4,1-10.4
		c3.5-12.3,9.7-23.1,18.9-31.9c8.5-8.1,18.1-14.7,29.3-18.6c0.6-0.2,1.2-0.4,1.5-1c6.1,2.7,11.7,6.2,16.8,10.5
		c8.2,7,10.1,16.4,9.5,26.7c-0.1,1-0.3,2.1-0.4,3.1c-1.2,4.3-2,8.8-3.7,13c-1.4-2.4-1.1-5.2-1.7-7.9c-0.1-0.7-0.1-1.4-0.3-2.1
		c-0.5-1.5-1.3-2-2.7-1c-1.9,1.3-3.8,2.6-5.8,3.9c-3.2,2-6.8,2.7-10.4,3.3c-0.7,0.1-1.4,0.1-2.1-0.3c-0.9-0.9-0.3-1.9,0-2.9
		c0.7-2.2,1.4-4.3,1.8-6.6c-1.5,0.3-2.1,2.2-3.8,1.6c-0.4-1.1,0.4-1.6,0.9-2.2c-9.5,4.7-19.1,9.5-29,13.3c-0.9-0.3-1.3-1.2-1.8-1.8
		c-1.5-1.7-3.3-2.7-5.5-2.2c-2.3,0.6-2.4,2.7-2.7,4.6c-0.2,1.3,0,2.5-0.1,3.8C441.4,270.4,441.5,271.4,440.7,272.1z"/>
	<path fill="#E6AB6F" d="M578,119.5c-3.1,2.5-6.9,3.9-10.2,6.2c-12.3,9-22.2,19.9-27.2,34.6c-1.3,3.9-2,8-2,12.2
		c0,1.4,0.5,2.2,1.7,2.7c5,2.2,10.1,4,15.3,5.5c1.7,0.5,2.9,0,3.9-1.5c2.1-2.9,4.6-5.5,7.2-8c1.3-1.2,2.7-2,4.5-1
		c-0.1,1.3-1.4,2-1.6,3.3c-0.3,4.2,0.1,8.3,0,12.5c-0.6,3.9-0.9,7.9-3.1,11.4c-0.4,0.6-0.7,1.2-1.2,1.7c-0.4,0.4-0.8,0.8-1.4,0.6
		c-0.6-0.2-0.7-0.8-0.7-1.4c0.1-2.1,0.1-4.1,0.1-6.2c0-2-0.2-4-0.8-5.9c-0.4-1.3-1.4-1.1-2.3-0.7c-9.6,3.3-19.5,3.4-29.5,2.3
		c-1.1-0.1-2.2-0.4-3.1-1.2c-1.1-0.4-2.3-0.7-3.4-1.1c-4.5-1.5-5.3-2.6-5.6-7.4c-0.8-13.2,3.3-24.9,11-35.4
		c8.3-11.4,19.2-19.2,33.1-22.6C567.6,119,572.7,118.4,578,119.5z"/>
	<path fill="#F2B577" d="M623.1,87c7.2,5.2,10.7,15.1,8.6,24.3c-2.1,9-9.7,16.3-18.7,17.8c-1.3,0.2-2.5,0.4-3.8,0.6
		c-0.4,0.4-0.9,0.4-1.3,0.3c-3.2-1.4-6.4-2.7-9-5c-1.2-4.8,0.2-9.3,2-13.7c3.8-8.9,9.2-16.4,17.9-21.2
		C620.3,89.1,621.5,87.7,623.1,87z"/>
	<path fill="#E6AB6F" d="M623.1,87c-0.9,2.1-3,3-4.7,4.1c-10.7,6.4-16.4,16.3-19.1,28.1c-0.4,1.7-0.1,3.6-0.1,5.5
		c-2.2,0.3-3.6-1.4-5.1-2.5c-2.9-2.1-5.6-4.4-7.4-7.6c0.1-2-0.8-3.7-1.1-5.6C584,99.6,588.7,90,597.2,85
		C605.3,80.3,615.9,81.1,623.1,87z"/>
	<path fill="#BFD594" d="M583.7,219.7c-5.1,3.7-9.6,8.1-15.3,10.8c-2,0.9-4.1,1.7-6.4,0.8c-5.1-5.9-8.6-12.9-12.7-19.4
		c-1-1.7-2.7-2.9-3.3-4.9c0.5-1.2,1.7-1.4,2.8-1.7c5.2-1.5,10.2-3.7,15.3-5.4c1.8-0.6,3.6-1.7,5.4-2.4c1.1-0.1,2.1,0.5,3.1,0.9
		c3.1,2.7,4.5,6.6,7,9.8c0,0.2,0.3-0.4,0.1-0.2c-0.7-1.4-0.1-2.7,0.5-4c0.6-0.5,1.2-0.5,1.9-0.2c1.1,0.9,0.9,2.1,1,3.3
		c0.2,3.2,0.5,6.4,0.9,9.5C584,217.6,584.8,218.7,583.7,219.7z"/>
	<path fill="#A86258" d="M482.1,212.5c-3.1-0.2-5.7,1.3-8.4,2.5c-13,6-24.6,13.8-34,24.7c-4,4.6-6.8,10.2-10,15.4
		c-0.6,1-1.2,2.1-1.8,3.1c-0.3,0.5-0.5,1.2-1.1,1.1c-0.7-0.1-0.5-0.9-0.5-1.4c-0.1-3.7,0.6-7.3,1.5-10.8
		c3.2-12.2,10.1-21.8,20.1-29.4c4.9-3.6,9.9-6.9,15.2-9.9c0.4-0.2,0.7-0.6,1-0.9C470.5,207.5,476.5,209.4,482.1,212.5z"/>
	<path fill="#9CA97C" d="M613.5,215.5c-0.1,2.1-1.3,3.6-2.5,5.1c-5.9,7.1-11.9,14.2-17.8,21.2c-1.7,2.1-3.4,4.2-5.1,6.3
		c-4.9,5.5-10.6,10.4-15.2,16.2c-2.9,3.7-5.4,7.5-7.4,11.7c-0.4,0.8-0.5,1.9-1.9,1.8c-0.9-4.7-1-9.4,0.8-14c0.4-1.3,0.7-2.5,1.1-3.8
		c0.4-1.3,1.3-2.1,2.4-2.6c5.6-8,12.3-15.1,18.8-22.3c1.4-1.6,3.4-2.6,4.7-4.4c4.3-4.2,8.8-8.3,12.8-12.8c2-2.3,3-4.6,1.4-7.6
		c-0.4-0.7-1.3-2.4,1-2.1C609.1,210.6,611.8,212.6,613.5,215.5z"/>
	<path fill="#F5E3CF" d="M591.8,231.2c-2.5,2.6-5,5.2-7.6,7.9c-5.7,6-11,12.3-15.8,19c-1.7-0.4-0.8-1.6-0.7-2.4
		c1-5.2,2.8-10.1,5.2-14.8c3.2-6.4,6.4-12.8,10.3-18.8c0.3-0.5,0.6-0.9,1-1.3c0-0.4-0.1-0.8-0.4-1c0.2-1-0.3-1.9-0.4-2.8
		c3.9-2.8,7.1-6.7,11.6-8.8c0.9-0.4,1.7-0.8,2.6-1.1c1.9-0.6,3.6-0.3,5,1.3c1.3,1.6,1.1,3.3,0.2,5.1
		C599.5,219.6,595.8,225.5,591.8,231.2z"/>
	<path fill="#FEEDD9" d="M569.8,197.7c-0.3,0.9-1.2,0.9-1.9,1.2c-6.4,2.7-12.9,5.2-19.5,7.3c-0.7,0.2-1.4,0.7-2.2,1
		c-0.4,0.1-0.6,0-0.4-0.4c-2.7-3.1-5.6-6-8.7-8.7c-0.8-0.7-1.7-1.4-2.3-2.4c0.8-1,1.9-1.1,3-1.2c4.7-0.2,9.1-1.7,13.3-3.6
		c3.1-1.4,6.3-2.7,9.3-4.3c0.8-0.4,1.7-1,2.7-0.6c1.5,4.3,0.9,8.7,0.7,13.5c3.7-4,4.5-8.7,5-13.5c0.7,0,1,0.5,1.1,1.1
		c0.2,3,0.8,6,0.6,9C570.5,196.8,570.3,197.3,569.8,197.7z"/>
	<path fill="#FEEDD9" d="M591.8,231.2c0.1-2.1,1.6-3.5,2.7-5.1c3.1-4.3,5.3-9.1,8-13.6c0.9-1.4,0.6-2.8-0.4-4
		c-1-1.2-2.3-1.6-3.9-1.1c-4.3,1.3-7.7,4.2-10.9,7.1c-1.1,1-2,2.5-3.9,2.3c-0.9-3.3-0.7-6.7-1-10.1c-0.1-1,0.2-2.1-0.5-3
		c-0.6-0.9,0.1-1.5,0.6-2.1c0.9-1,1.8-2,2.7-3.1c0.5-0.5,1-1.2,1.8-1c0.9,0.3,0.8,1.3,0.9,2c0.1,1.3,0,2.5-0.4,4
		c1.7-1.1,3-2.4,4.3-3.8c0.7-0.7,1.4-1.3,2.5-1.2c3.5,0.5,6.9,1,10.4,1.7c0.4,0.1,0.9,0.3,0.8,1c0.6,2.3,0.5,4.7,1.4,6.9
		c-1.7,0.2-0.9,1.3-0.5,1.8c1.8,2.7,1.2,5.1-0.7,7.4C601.4,222.6,596.6,226.9,591.8,231.2z"/>
	<path fill="#E6AB70" d="M605.3,201.5c-3.8-1.2-7.8-1.3-11.6-2.1c-0.8-0.2-1,0.6-1.5,1c-1.9,1.8-3.8,3.6-5.9,5.2
		c0.7-2.5,1.1-5,0.6-8.3c-1.7,2.7-3.9,4.1-5.1,6.5c-0.5,0.1-1.1,0.1-1.5,0.6c-1.3-0.4-0.5-1.2-0.3-1.8c1.5-4.2,1.2-8.5,0.7-12.8
		c-0.1-0.4-0.3-0.7-0.7-0.9c-1-0.5-1.8-1.2-2.1-2.3c-0.2-1.1-0.4-2.2,0.5-3.2c0.2-1.1-0.6-2.9,0.5-3.3c1.3-0.5,2,1.2,2.8,2.1
		c4.5,5,10.1,8.7,15.9,12c2.7,1.5,5.7,2,8.7,2.6c0.8,0.2,1.6,0.2,2,1.1C607.5,199.2,606.6,200.5,605.3,201.5z"/>
	<path fill="#9CA97C" d="M645.1,290.7c-0.7-0.7-0.4-1.6-0.4-2.4c0-1-0.4-1.4-1.4-1.3c-5.4-0.2-10.8-0.4-16.2,0.2
		c-4.4,0.5-8.9,0.7-13.3-0.2c-1.7-2.3-1.6-4.7-0.3-7.2c11.2,0.3,22.4,0.6,33.5,1.5c0.3,1,0.6,1.9,1,2.9c0.7,1.9,0.6,3-1.9,3.3
		C644.1,287.7,645.5,289.6,645.1,290.7z"/>
	<path fill="#ADBC8A" d="M586.6,114.5c3.9,3.7,7.5,7.8,12.5,10.1c3.3,1.7,6.5,3.8,10.1,5c0.4,2.4-1.2,4.1-1.8,6.2
		c-7.3-2.5-13.9-6.3-19.8-11.3c-1.8-1.6-3.5-3.3-5.6-4.4C583,117.8,585,116.3,586.6,114.5z"/>
	<path fill="#F5E3CF" d="M563.2,186.1c-6,3-11.9,6-18.3,8c-3.3,1-6.7,0.9-10.1,1.6c-2.9-2.7-5.5-5.5-7.2-9.1
		c5.7,0.9,11.4,1.2,17.2,0.9c5.4-0.3,10.8-0.9,15.9-3.1C562.8,183.5,563.3,184.1,563.2,186.1z"/>
	<path fill="#B1C589" d="M545.8,206.8c0.1,0.1,0.3,0.3,0.4,0.4c3.5,2.6,5,6.6,7.1,10c2.6,4.2,5,8.5,8.1,12.3
		c0.3,0.4,1.3,0.9,0.6,1.8c-1.9-0.2-3.3-1.4-4.3-2.8c-4.3-6.4-8.9-12.5-12-19.6C545.5,208.3,544.3,207.5,545.8,206.8z"/>
	<path fill="#A6B286" d="M584.2,220.7c-1.7,4-4.2,7.5-6.2,11.3c-4.2,7.8-8,15.7-9.7,24.4c-0.1,0.6-0.6,1.2,0.2,1.7
		c-1,0.5-2.1,1-2.8,2c1.4-6.4,3.6-12.6,6.4-18.5c3.2-6.5,6.5-13,10.4-19.2C582.8,221.7,583.1,220.7,584.2,220.7z"/>
	<path fill="#F4BE81" d="M489.1,312.4c4.5,2.4,9,4.8,13.5,7.2c0.1,0.2,0.1,0.4,0,0.7c-2.5,1.4-5.2,1.6-7.9,2.5
		c-0.2,0.1-0.8-0.5-0.6,0.3c-0.3,2-0.5,4.2-2.9,5c-2.4,0.1-4,1.6-5.2,3.4c-2.5,4.2-4.3,8.6-3.3,13.8c0.4,2.2,0.4,4.4,1.1,6.6
		c0.6,1.6,1.3,1.8,2.5,0.7c1.3,0.7,1.4,2.1,1.6,3.3c-0.6,8.1-0.3,16.3-0.5,24.4c-0.3,13,1.1,25.8,3.2,38.6
		c1.5,8.9,3.4,17.7,6.2,26.3c0.5,1.7,1,3.4,1.3,5.1c-0.3,1.9-2,2.4-3.4,3c-1.3,0.5-2.5,1-3.9,1c-5.5,1.7-11.2,1.6-16.8,1.9
		c-7.5,0.4-15-0.4-22.5-1c-1-0.1-2.1-0.3-3-0.8c-1.3-1.2-1.3-2.9-1.4-4.4c-1.6-18.5-3.8-37-6.8-55.4c-1.5-9-2.8-18-6.9-26.3
		c-0.3-0.7-0.3-1.8-1.3-1.8c-0.8,0-1,0.9-1.4,1.5c-2.5,3.8-3.3,8.3-4.3,12.6c-1.1,4.7-2.3,9.5-3.8,14.1c-1,1.3-0.1,3.7-2.3,4.4
		c-0.7,0.1-1.4,0-2.1-0.3c-5.5-2.1-11.2-3.5-16.6-5.8c-0.7-0.3-1.5-0.6-1.9-1.4c-0.6-0.1-1.2-0.4-1.5-1c-0.2-4.2,0.7-8.4,1.6-12.5
		c2.2-10.2,6.7-19.4,12.2-28.2c4.2-6.6,8.6-13.1,14.3-18.5c2.1-2,4.3-3.8,6.6-5.6c3.9-2.9,7.9-5.7,11.6-8.8c1.4-0.2,1.7,0.9,2.2,1.7
		c1.9,3.3,4.5,5.8,7.7,7.9c9.5,5.2,18.8,2.3,25.5-3.7c2.6-2.3,4.7-5,6.5-7.9C487.6,314.3,487.5,312.5,489.1,312.4z"/>
	<path fill="#D77964" d="M364.7,554.4c-1.3-8.8-1.9-17.7-1.8-26.7c0.1-11.5,4.8-21,12.7-29c2.5-2.5,4.9-5.3,7.8-7.4
		c0.6-0.3,1.1,0,1.7,0.1c0.5,0.1,1,0.4,1.4,0.2c1.9-0.9,3.7-1,5.5,0.4c0.7,0.5,1.5-0.2,2.1-0.8c0.6-0.7,1.2-1.5,2.3-1.5
		c1.4,0.2,2.8,0.3,3.6-1.3c1.7-2.8,2.1-6,2.5-9.1c0.1-0.8,0.1-1.6,0.4-2.3c1.6-0.9,1.5,0.7,1.8,1.3c0.7,1.7,1.4,3.4,2.8,4.7
		c1.1,1.1,2.2,1.3,3.1-0.2c0.8-1.6,0.6-3.2,0.4-4.9c-0.4-3.1-1.3-6-1.8-9.1c0.3-1.4,1.4-2.3,2.5-3.1c3.8-2.9,6.5-6.8,9.5-10.4
		c1.3-1.6,2.2-3.5,2.6-5.6c0.1-0.7,0.3-1.4,1-1.8c0.7-0.4,1.4-0.1,2,0.2c3.7,1.7,7.5,2.9,11.5,3.7c1,0.2,2,0.4,2.6,1.4
		c0.3,1.2-0.1,2.2-0.5,3.3c-2.5,7.8-7.3,13.9-13.4,19.2c-6.1,5.3-11.6,11.2-17.2,17.1c-4.8,5.1-9.3,10.6-13.4,16.3
		c-9.4,13-14.2,27.6-15.6,43.5c-0.8,8.9-0.6,17.7,1.3,26.5c3.2,15,5.1,30.3,8.7,45.2c0.3,1.2,0.5,2.3,0.5,3.6c0,1.2-0.1,2.3-1.5,2.7
		c-2.5,0.4-5.1,0.3-7.6,0.1c-3.1-0.5-4.3-1.5-5-4.9c-0.9-4.5-1.4-9-2.1-13.5c-1.8-10.6-4.9-20.8-6.6-31.4
		c-1.3-8.1-3.4-16.1-3.9-24.4C364.7,555.6,364.6,555,364.7,554.4z"/>
	<path fill="#F5E3CF" d="M385,491.9c-0.5-0.2-1-0.4-1.5-0.6c-3.8-0.8-5.4-3.3-5.7-8.2c-0.6-10.2,3-18.9,10-26.2
		c0.9-0.9,1.3-1.7,1-3.1c-2.3-11.1-0.9-21.7,4.1-31.8c1.1-2.3,2.3-4.5,3.6-6.8c1-1.8,1.5-3.6,1.5-5.7c-0.2-6-0.4-12,1.9-17.7
		c6.8,2.5,13.7,4.9,20.7,7.1c0.6,0.8,0.5,1.5-0.2,2.2c-2.3,1.1-4.4,0.1-6.5-0.4c-5-1.1-4.4-1.8-5.3,3.5c-1.6,9.6-4.5,18.8-8.8,27.5
		c-2.4,4.8-3,10.1-3.4,15.4c-0.4,6.4-2.1,12.4-5.6,17.9c-4.3,6.9-5.2,14.6-5.1,22.5C385.7,488.9,386.2,490.5,385,491.9z"/>
	<path fill="#8E9C71" d="M364.7,554.4c2.8,17.1,5.9,34.1,9.9,50.9c1.5,6.3,2.3,12.7,3.2,19.1c0.5,3.8,1.3,4.8,4.3,5.3
		c0.7,1.2,0.4,2.1-0.7,2.8c-3.7,1-7.4-0.3-11.2-0.2c-0.7,0-1.4-0.2-2.1-0.3c-3.6-0.6-4.7-1.7-4.7-5.4c-0.1-11.1,0-22.2,0-33.3
		c0-1.7,0.3-3.3,0.8-4.9c0-2.9,0-5.8,0-8.7c0-7.6,0.1-15.2,0.1-22.8C364.5,556,364.2,555.2,364.7,554.4z"/>
	<path fill="#E4B279" d="M445.1,317.1c-0.5,1.8-2.2,2.4-3.5,3.4c-4.9,3.9-10.1,7.2-14.6,11.5c-7.2,7-12.4,15.3-17.4,23.8
		c-5.4,9.3-8.5,19.3-10.5,29.8c-0.3,1.6-0.4,3.3-0.6,5c-1.3-2.3-0.1-4.7,0.1-7c0.5-6.5,1.1-13,2.8-19.3c2-7.9,3.8-15.8,7.6-23.1
		c6.3-12.2,15.9-20.5,28.4-25.9c1.9-0.8,3.9-1.4,5.9-2c0.3-0.3,0.7-0.2,1,0C444.9,314.5,445.9,315.6,445.1,317.1z"/>
	<path fill="#AA6A5E" d="M444,313.4c-0.3,0-0.5,0-0.8-0.1c0-1.1,0-2.2-0.1-3.3c0.7,0.5,0.2,1.4,0.7,2.1c2.7-3.2,4.6-6.5,4.1-10.9
		c0.2,0,0.4,0,0.4,0.1c1.7,4.1,1.1,10.1-3.9,12.1C444.3,313.5,444.2,313.4,444,313.4z"/>
	<path fill="#ADBC8A" d="M674,389.7c2.2,6.4,3.6,13,4.3,19.7c0.4,3.4,0.4,6.8,0.5,10.3c0.2,8.3-1.1,16.5-2.6,24.6
		c-1.8,9.5-4.2,18.9-5.5,28.6c-0.8,6.6-1.2,13.3-2.1,19.9c-1.6,12.2-1,24.4-0.8,36.6c0.1,7.3,0,14.5,0.4,21.8c0.5,9.1,1.8,18,3.1,27
		c1.3,8.4,2.4,16.8,3.5,25.3c0.1,1.1,0.1,2.2-0.5,3.3c-0.6,1-1.3,1.6-2.5,1c-3.3-1.6-6.9-1.1-10.4-1.1c-1.9,0.8-3.9,0.2-5.8,0.1
		c-3.2-0.3-6.4-0.6-9.6-0.8c-2.5-0.2-5.1,0.2-7.4-1.4c-0.6-4.5,0.2-8.9,0.5-13.4c0.4-6.2,0.2-12.3-0.3-18.4
		c-1.1-11.7-3.2-23.3-4.4-35c-0.5-5.4-2.6-10.6-3.7-15.9c-2.5-12-4.3-24.1-5.8-36.2c-1.3-10.7-1.9-21.5-2.8-32.2
		c-0.1-1.3-0.1-2.6-0.1-3.8c-0.1-2.9-0.7-5.7-2.1-8.3c-5.8-11.6-12-23-17.6-34.6c-0.3-0.7-0.7-1.4-0.9-2.2c-0.5-1.7,0.1-3,1.7-3.8
		c1.2-0.6,2.6-0.8,3.9-1.1c9.5-2.4,19.3-2.7,29-3.8c11.8-1.4,23.6-2.3,35-5.7C672.1,389.6,673,389.4,674,389.7z"/>
	<path fill="#A2B181" d="M674,389.7c-4.3,1.9-9,2.8-13.5,3.7c-6.7,1.3-13.5,1.8-20.3,2.6c-11.6,1.4-23.3,1.8-34.7,4.7
		c-3.8,1-4.2,1.6-2.5,5c4.7,9.4,9.4,18.8,14.4,28.1c1.4,2.7,2.7,5.4,4.1,8.1c1.1,2.2,1.4,4.5,1.6,6.9c0.3,6.1,0.4,12.3,1,18.4
		c0.8,8.4,1.7,16.7,2.7,25.1c1.7,13.3,3.8,26.4,7.3,39.3c1.7,6.3,1.7,12.7,2.8,19.1c1,5.6,1.7,11.3,2.3,17
		c0.8,7.8,1.7,15.6,0.8,23.6c-0.4,3.4-0.7,7-0.6,10.5c0,0.8,0.3,1.8-0.5,2.5c-2,0.8-2.5-0.6-2.9-2c-0.4-1.3-0.2-2.7-0.3-4
		c-0.1-1.5-0.8-2.3-2.3-2.5c-1.8-0.2-3.6-0.5-5.4-0.9c-2.3,0.1-4.6,0.2-6.8-0.2c-3.8-0.7-7.6-0.6-11.5-0.9c-0.3,0,0.1,0-0.2,0
		c-5.5-0.3-6.8-1.2-7-6.5c-0.7-17.4-4.2-34.4-6.1-51.7c-2.6-23.8-5.9-47.4-8.8-71.2c-2.7-22.3-6.3-44.5-9.8-66.7
		c-0.2-1.3-0.5-2.4-1.7-3.3c-1.7-1.4-1.5-3.4-1.3-5.3c0.4-3.6,1.4-7.1,2.5-10.5c3.1-9.5,5.8-19.1,7.9-28.9c0.3-1.5,0.5-3.3,2.6-3.6
		c5,0.4,9.8,1.5,14.7,2.5c0.4,0.1,0.7,0.3,1,0.7c0.3,0.6,0.2,1.2,0.2,1.8c-0.3,1.9,0.1,3.5,2.1,4.3c-2.9,0.2-3.1,2-2.9,4.4
		c0.2,2.5,0,5.1,0.1,7.7c0.2,7.2-0.8,14.3-0.5,21.5c0.1,2,0.4,2.5,2.6,2.2c5.2-0.8,10.6-1.1,15.8-1.7c7.7-0.9,15.3-1.3,23-1.8
		c3.7-0.3,7.4-0.7,11.1-1c5.2-0.3,10.2-1.7,15.2-3c0.6-0.2,1.2-0.3,1.9-0.4C672.5,385.6,673.8,387.4,674,389.7z"/>
	<path fill="#ACA780" d="M625,652.7c-8.2-1.1-15.9-3.9-23.2-7.8c-5.8-3.1-11.9-4.4-18.3-4.7c-5.1-0.2-9.9-1.1-14.2-4.3
		c-3.5-2.6-4-5.4-2.2-9.3c1.8-3.8,5.1-5.5,8.4-7.5c0.5,0.3,0.5,0.9,0.5,1.4c-1.1,6.5,2.8,12.1,9.8,13.2c8.6,1.4,17,0.3,25-3.3
		c6.5-3,12.6-6.9,19.2-9.7c1.7-0.7,3-1.9,2.8-4c0.1-1.2-0.6-2.5,0.1-3.7c2.7-0.5,7.5,1.5,8.7,3.5c-0.5,2.6-2.9,3.5-4.7,5
		c-3.8,0.7-7.1,2.3-10.1,4.6c-2.6,2-5.6,3.1-8.5,4.2c-4,1.6-5.5,4.3-4.8,8.5c1.1,5.2,5.2,8.5,11,8.9c4.5,0.3,9.1,0.6,13.6,0.5
		c1.1,0,2.3-0.2,3.1,0.8C636,650.6,630.5,651.7,625,652.7z"/>
	<path fill="#E0A76C" d="M641.4,648.9c-5.7-0.1-11.3,0-17-0.5c-5.4-0.5-11.5-4.1-11.4-10.1c0.6-0.3,1.1,0,1.6,0.3
		c2.5,1.6,5.3,2.4,8.2,2.5c7.9,0.2,15.8,0.9,23.7-0.6c2.7-0.5,5.3-1.1,7.8-2.2c-2.3-1.1-2.7-2.9-1.6-6.9c2-3.7,3.4-7.6,5.6-11.1
		c1.1-0.7,2.1-1.4,3.2-2.1c0.7-0.5,1.4-1.2,2.4-0.5c0.2,1.5-0.1,2.9-0.4,4.3c0.7,1.3-0.2,2.4-0.5,3.6c-0.4,1.4-0.9,2.8-1.2,4.3
		c0.1,1.9-0.8,3.7-1.5,5.8c2.6-1.4,4.7-2.8,6.8-4.2c0.8-0.5,1.4-1.3,2.5-0.9c-0.1,3.2-2.2,5.3-4.5,7c-3.8,2.9-7.7,5.7-11.9,8.1
		C649.6,647.8,645.6,648.7,641.4,648.9z"/>
	<path fill="#FEEDD9" d="M658.7,620.6c-1.9,3.4-2.9,7.3-5.3,10.4c-2-2.4-4.4-4.4-5.6-7.3c0.2-0.9,0.8-1.5,1.4-2.2
		c2.8-3.8,4.7-7.9,5.4-12.6c0.2-1,0.2-2.1,1.2-2.8c1.9,0.1,3.9-0.1,5.8,0.6c-0.6,1.9-0.5,3.8-0.4,5.8
		C661.9,615.6,660.9,618.3,658.7,620.6z"/>
	<path fill="#F2B577" d="M669.6,630.6c-3.3,2-6.5,4.5-10.3,6.3c0.3-2.6,2.3-4.5,1.8-6.9c0.6-0.7,1-1.6,1.6-2.4c1-1.2,1.7-2.5,1-4.1
		c-0.2-0.5-0.1-1.1,0.2-1.6c2.9-0.1,5.7,2.1,5.8,4.9C669.7,628.1,669.6,629.4,669.6,630.6z"/>
	<path fill="#F2B679" d="M658.7,620.6c1.2-2.6,2-5.3,2.4-8.2c2.8,0.8,2.4,3.2,2.8,5.3C661.8,618.1,660.8,620.3,658.7,620.6z"/>
	<path fill="#FDE9D3" d="M663.9,622c0,0.1,0,0.2,0,0.2c2,3.7-0.2,5.8-2.8,7.8c0.5-2.8,1.5-5.4,2.4-8C663.6,622,663.7,622,663.9,622z
		"/>
	<path fill="#DDD8AB" d="M588.1,346.9c-1.2-0.1-1.5,0.6-1.7,1.6c-2.4,12.7-6.8,24.9-10,37.4c-0.5,1.8-0.8,3.6-0.8,5.4
		c0,1.6,0.2,2.9,2.1,3.2c0.9,0.1,0.8,0.8,0.9,1.5c0.9,9.3,2.9,18.4,4.1,27.6c1.3,9.4,2.6,18.7,4,28.1c0.9,6.1,2.1,12.1,2.6,18.2
		c0.4,5.3,1.1,10.6,1.8,15.9c1,7.9,2,15.8,3.1,23.7c0.8,6.1,1.7,12.3,2.3,18.5c1,9.8,2.4,19.6,4,29.3c0.9,5.8,1.4,11.7,2.2,17.5
		c0.7,5.1,0.3,10.2,0.9,15.3c0.1,1.2,0.4,1.9,1.6,2.3c1.5,0.4,3,1,4.7,1c2.2,4.4,0.9,7.9-4.1,11.2c-3.1-0.6-6,0-8.6,1.6
		c-0.5,0.3-1,0.4-1.6,0.1c-3.6,1.1-7.3,2.4-11,3.3c-7.7,1.8-15.6,2.8-23.5,4c-7.7,1.1-15.3,2.6-23,3.9c-12.1,2.1-24.1,4.1-36.2,6.1
		c-2.2,0.4-4.4,1.6-6.7,0.5c0.6-1.8,2.3-2.3,3.7-3.2c14.3-9.1,28.7-18.1,43.1-27.1c3.4-2.1,4.6-4.6,4.3-8.5
		c-0.8-11.6-0.6-23.2-1.1-34.7c-0.4-11.2-0.6-22.4-1-33.5c-0.3-9.2-0.7-18.4-0.9-27.5c-0.1-2.4,0.2-5-1.7-7c-1.2-1-2.6-1-4-1.1
		c-4.3-0.3-8.5-0.3-12.8-0.9c-0.9-0.1-1.8-0.1-2.4-0.8c-0.7-1.1-0.4-2.3-0.2-3.5c2.3-11.4,3.3-22.9,2.9-34.6
		c-0.1-4.2-0.8-8.3-1.5-12.4c-0.5-2.6-0.1-5.2-0.1-7.9c0.1-8.3,0.4-16.6-0.2-24.9c-0.4-4.5-0.3-8.9-0.5-13.4
		c-0.7-14.5-2.6-28.8-6.8-42.7c-0.2-0.7-0.5-1.4-0.5-2.1c0-0.3,0.1-0.7,0.3-0.8c3.1-1.6,6-3.4,9-5.2c0.3-0.2,0.8-0.2,1.1,0l0,0
		c6.5,9.7,16.7,11.2,27.1,12.2c0.2,0,0.5,0,0.7,0c9.8-2.2,19.4,0.4,29,1.3c1.5,0.1,3,0.1,4.5,0.4C587.5,346,588.1,346.2,588.1,346.9
		z"/>
	<path fill="#9DAB7D" d="M542,481.8c2.3,1.6,1.6,4.3,1.8,6.4c0.4,6.5,0.4,13.1,0.6,19.6c0.3,12.7,0.8,25.4,1.1,38
		c0.3,11.6,0.8,23.1,0.9,34.7c0,2.5,0.3,5.1,0.4,7.6c0.1,2.1-0.8,3.5-2.5,4.5c-9.4,6-18.9,12-28.3,18c-7,4.4-14.1,8.8-21.1,13.2
		c-0.8,0.2-1.3,0.9-1.9,1.4c-3.1-2.7-7.2-3.7-10.8-5.4c-4.2-1.9-8.4-3.8-12.7-5.5c-0.8-0.3-1.6-0.7-2-1.6c-0.5-1.5-0.7-3.1-0.7-4.7
		c-0.2-12.7-1.2-25.3-1.6-38c-0.3-11.2-0.7-22.5-1.4-33.7c-0.1-2.4,0-4.8-0.9-7.1c-0.1-1.4,0.9-2.1,2-2.7c9-4.8,17.7-10,26.6-15
		c0.8-0.5,1.6-1.1,2.7-0.7c1.1,1.2-0.1,2.1-0.6,2.9c-3.1,4.5-4.5,9.4-4,14.8c0.1,1.3,0.1,2.8,1.6,3.5c1.1,0.3,2,1.5,3.3,0.5
		c1.2-1,1.8-2.4,2.6-3.6c0.4-0.6,0.8-1.8,1.9-0.6c0.7,3,0.5,6,0.2,9c-0.3,4.3-0.5,8.5-1,12.8c-0.2,1.8,0.7-0.5,0.7,0.2
		c0.6,0.3,0.8,0.8,0.8,1.4c-0.1,2,1.1,2.9,2.9,3.3c1.2,0.9,2.4,0.8,3.4-0.3c2.6-2.7,6-4.5,8.6-7.2c1.5-1.6,2.8-3.3,3.3-5.4
		c0.3-1.2,0.6-2.5,0.7-3.8c0.3-6.5,1-13,0.6-19.6c-0.4-6.1-0.7-12.3-1.8-18.3c-0.2-1.4-0.1-2.7,0.7-3.9c5.6-3.6,11.5-6.6,17.2-10
		C537.3,484.9,539.7,483.4,542,481.8z"/>
	<path fill="#F4BE81" d="M455.2,637.8c0.1,1.3,0.3,2.6,0.4,3.9c0.4,1.2,0,2.4-0.6,3.4c-4.3,8.4-8.5,16.9-14.3,24.3
		c-2.2,2.8-4.6,5.6-7.8,7.3c-7.3,4-14.9,3.5-22.6,1.4c-3.3-0.9-5-3.8-7.3-6.1c-0.8-3.9,0.3-7.6,1.8-11.1c1.4-3.1,3.6-5.6,5.7-8.2
		c4.7-5.8,9.6-11.5,13.8-17.7c2-2.6,3.1-5.6,4.9-8.3c1.4-0.9,2.8-1,4.3-0.5c0.7,1.2,1.6,2.2,2.8,3.1c1.5,1.1,1.4,1.9-0.2,2.9
		c-0.7,0.4-1.4,0.8-2.1,1.1c-1.4,0.7-1.4,1.4-0.3,2.5c1.9,1.9,1.8,2.4-0.6,3.9c-0.8,0.4-1.5,0.8-2.3,1.3c-1.3,0.7-2.3,1.3-0.8,3
		c1,1.2-0.1,1.8-1.2,2.1c-1.5,0.5-3.2,0.3-4.4,1.6c-0.1,0.2-0.3,0.3-0.5,0.4c-0.5,0.6,0,1,0.2,1.5c1.5,2.9,1.4,3-1.7,4.2
		c3.3-1,4.8-0.4,5.5,2.3c0.2,0.7,0.2,1.4-0.3,2c-1.6,1.7-5.5,1.6-7.1-0.2c-0.3-0.3-0.5-0.6-0.8-1c0.3,1,1.6,1.6,1.2,2.7
		c-0.3,1.1-1.5,1.3-2.4,1.8c-1.3,0.7-2.5,1.4-3.8,2.1c5-0.6,9.3,0.9,13.3,3.8c-1.8-1.5-3-3.3-4.1-5.3c-1-1.8-0.4-2.4,1.2-2.9
		c1.5-0.5,3.1-0.8,4.4-1.5c0.1-0.4-0.2-0.5-0.4-0.7c-3.2-3.3-2.9-4.5,1.2-6.1c0.6-0.2,1.1-0.6,1.7-0.8c1.9-0.5,3.1-1.2,1.4-3.3
		c-0.8-1-0.1-1.8,0.9-2.3c1.3-0.6,2.7-1,4.1-1.4c1.1-0.3,1.4-0.8,0.7-1.9c-2.3-3.8-2.2-3.8,1.9-5.7c0.8-0.3,1.8-0.3,0.9-1.7
		c-1.9-3-1.8-3.1,1-5.2c-2.9,2.2-5.4,1.1-7.8-0.7c-0.6-0.4-1.6-0.9-0.3-1.8c1.2-0.5,2.4-0.3,3.6-0.3c4,0,8.1-0.5,12,0.5
		c1,0.1,2,0.4,2.8,1C454.7,630.8,455.6,634.2,455.2,637.8z"/>
	<path fill="#808D67" d="M455.2,637.8c-0.9-3.3-1.5-6.6-1.9-10c0.3-0.4,0.8-0.5,1.3-0.5c2.8-0.2,2.8-0.2,2.4-2.9
		c-0.5-3.3-0.5-6.7-0.6-10c-0.3-12.3-0.5-24.6,0.7-36.9c1.2-12.5,1.8-25,0.5-37.6c-0.5-4.8-1.8-9.4-3-14.1c-0.9-3.2-0.6-3.9,2.8-4.2
		c6.3-0.6,12.5-2,18.2-4.8c9.9-4.9,19.6-10.2,26.6-19.1c0.3-0.4,0.7-0.8,1.3-1.1c1.6,0.9,2.1,2.1,0.9,3.5c-2.6,3.2-4.9,6.6-7.6,9.8
		c-0.9,0.5-1.9,0.9-2.9,1.1c-5.6,3.2-11.2,6.3-16.8,9.5c-4.6,2.6-9.3,5.2-13.9,7.9c-0.1,14-0.3,27.9,0,41.9
		c0.2,8.9,0.5,17.9,0.9,26.8c0.5,9.3,0.9,18.7,1,28c0,3.3,0.5,6.5,0.4,9.8c0,1.1,0.1,2.3-0.6,3.3c-0.5,0.5-1.1,0.4-1.7,0.2
		C460.5,638.5,457.9,637.9,455.2,637.8z"/>
	<path fill="#ACA780" d="M364.3,588.4c0,13,0,26,0,39c0,2.6,0.7,3.5,3.3,3.7c4.7,0.4,9.3,1.1,14,1c0.5,1.1-0.3,1.8-0.8,2.6
		c-2.2,2.9-4.8,5.3-7.5,7.7c-6.6,5.8-12.2,12.4-14.6,21.1c-0.8,2.8-1.4,5.7-1.3,8.7c-0.2,1.2,0.9,2.5-0.2,3.6
		c-1.9-2.4-2.3-5.3-3-8.2c-1.4-6.2,1.6-11.3,3.4-16.8c1.3-3.7,2.8-7.4,2-11.6c-0.5-2.6-1.6-4.9-3.6-6.6c-2.9-2.5-4.6-5.5-4.8-9.2
		c-0.1-2.1-0.1-4.4,0.6-6.3c3.7-9.5,7.8-18.9,12.1-28.1C364,588.7,364.2,588.6,364.3,588.4z"/>
	<path fill="#F2B577" d="M595.3,606.2c1-0.5,2-0.9,2.9-1.5c2.3-1.4,4.7-1.8,7.1-0.5c2.5-0.1,4,1.6,5.6,3.1c1.1,1,2,2.3,2.9,3.5
		c0.8,1.7,2.6,2.9,3,4.9c0.1,0.9-0.3,1.7-0.3,2.6c0,1.4,0.1,2.5,1.5,3.2c1.4,0.7,1.6,1.8,0,2.4c-5.5,2.1-10.9,4.6-16.9,5.1
		c-5.8,0.5-11.6,0.8-17.4-0.4c-3-0.6-5.3-2.2-7.4-4.2c-1.2-1.1-1.3-2.5-0.9-4c0-0.5,0-0.9,0-1.4c1-4.3,4.1-6.1,8.2-6.8
		C588.2,611.5,591.9,609.1,595.3,606.2z"/>
	<path fill="#97A578" d="M463.2,638.3c0.5,0,0.9,0,1.4-0.1c0.3-0.1-0.1,0,0.2-0.1c3.6-1.7,3.4-1.7,3.1-5.8c-0.4-5.3-0.8-10.7-0.8-16
		c0-1-0.1-2.1,0.8-2.9c4.3,1,8.1,3.3,12.1,4.9c3.5,1.4,6.9,2.9,10.3,4.4c1.2,0.5,2.8,0.8,2.6,2.6c-6.7,4.2-13.4,8.5-20.3,12.5
		C469.8,639.5,466.5,639.1,463.2,638.3z"/>
	<path fill="#ACA780" d="M424.9,635.4c-3.3,5.5-7.7,10.1-11.6,15.2c-1.9,2.4-3.8,4.7-5.7,7.1c-3.3,4.2-4.2,9-4.3,14.2
		c0.7,1.5,1.6,3.1,0.5,4.8c-2.9,0.2-5.8-0.1-8.7-0.5c-1.5-0.2-2.6-1.1-3.8-1.9c-0.3-1.2,0.5-1.9,1.1-2.7
		c5.8-7.7,10.9-15.9,16.9-23.4c2.5-3.1,2.5-6.8,1-10.4c-0.3-1.2-1.4-2.4-0.1-3.6c2.5-0.9,5,0.3,7.5,0.2
		C420.1,634.8,422.7,634,424.9,635.4z"/>
	<path fill="#D2A470" d="M403.8,676.7c0-1.6-0.8-3.1-0.5-4.8c0.6,0.5,1.5,0.8,1.9,1.4c2.1,3.2,5.1,4.6,8.8,5.2
		c6.5,1,12.9,1.1,18.8-2.4c3.7-2.2,6.5-5.4,8.9-8.9c5.3-7.7,9.7-15.9,13.7-24.3c0.2-0.3,0.1-0.8,0.2-1.2c0.7,1.4,0.5,2.9,0.2,4.4
		c-1.7,7.3-5,13.9-9,20.2c-2.9,4.5-6.2,8.5-10.4,11.7c-5.8,4.5-12.4,5.6-19.4,4.2c-3.4-0.7-6.9-1.1-10-3.1
		C405.8,678.4,404.9,677.5,403.8,676.7z"/>
	<path fill="#D2A470" d="M411,637.8c2,4.9,0.6,9.1-2.7,12.9c-6.3,7.4-11.2,15.8-17.1,23.6c-4.1,4.1-8.9,7.3-14.7,8.3
		c-4.6,0.8-9.2,0.6-13.6-1.1c-2.8-1.1-4.6-3-5.7-5.7c-0.1-1.3-0.3-2.6-0.4-3.9c1.2-0.2,1.8,0.8,2.6,1.5c7,6.6,17.2,6.9,24.7,0.8
		c7.1-5.7,12.8-12.7,17.9-20.2c3.3-4.8,6.4-9.7,8.3-15.3C410.4,638.3,410.6,638,411,637.8z"/>
	<path fill="#F5E3CF" d="M578.4,183.3c0,1.1,0,2.2,0,3.3c-1.3,0.7-1.9-0.3-2.6-1c-1.6-1.6-2.3-3.8-2.8-5.9c-0.6-2.4-1.5-4.7-3.4-6.4
		c-0.1-0.2-0.3-0.4-0.3-0.6c0.1-1.3,1.1-1.8,1.9-2.4c3.4-0.9,4.9-0.1,5.8,3.3c0.6,2.4,1,4.8,1,7.3
		C578,181.7,577.8,182.6,578.4,183.3z"/>
	<path fill="#A2B181" d="M563.6,277.8c1.7-2,2.4-4.6,3.7-6.9c3.3-5.4,7.4-10.2,11.8-14.7c2.2-2.3,4.5-4.5,6.8-6.8
		c0.6-0.6,1.1-1.4,2.1-1.4c-1,1.9-1,4-1,6c0,2.1,0.3,4.3-0.4,6.4c-0.9,1.3,0.3,2.4,0.4,3.5c0.1,1.2,0.7,2.6-1.1,3.2
		c-1.7,0-3-1.1-4.5-1.6c-1.5-0.6-2.2-0.5-2.3,1.4c-0.3,4.4,0.6,8.8,0.3,13.2c-0.1,1.2,1,1.3,1.8,1.6c4.1,1.4,7.8,3.7,11.4,6
		c0.7,0.4,1.4,0.8,1.6,1.7c-0.6,1.3-2.6-0.7-2.8,1.1c-0.1,1,0.6,2.1,0.9,3.2c3,9.3,5.8,18.6,7.7,28.3c0.4,2.1,0.6,3.5-2,3.8
		c-3.4,0.3-6.7,0.7-10.1,1c-0.4-0.3-0.9-0.4-1.1-0.9c-1.8-5.2-6.3-8.2-9.5-12.3c-0.6-0.7-1.2-1.5-1.8-2.2c-1.8-1.9-3.3-4-4.9-6
		c-0.5-0.6-0.7-1.3-0.9-2.1c-2.8-4.6-3.9-9.7-4.8-14.9C564.5,284.9,564.1,281.4,563.6,277.8z"/>
	<path fill="#F5E3CF" d="M444,313.4c4.5-3,5.3-7.2,3.9-12.1c-0.5-4.8-0.9-9.6-2-14.3c0.6-0.2,1.1,0.1,1.5,0.5
		c2.9,3.6,6.5,6.5,9.5,10c0.2,0.2,0.3,0.5,0.4,0.8c-1.1,3.2,0.9,4.7,3.2,6.2c4.4,2.8,9.1,4.9,14.4,5.2c2.5,0.2,4.9-0.8,7.3-1
		c0.4,0,0.7,0.1,1,0.4c1.6,1.7,3.9,2.1,5.7,3.4c-0.6,1-1.3,1.9-1.9,2.9c-3.8,1.3-7.6,2.6-11.3,4.4c-6.1,3.1-12.7,5-19.2,7.2
		c-0.9,0.3-1.7,0.3-2.6,0.3c-4.2-2.3-6.7-6.1-9.1-10.1C444.7,315.9,444.4,314.6,444,313.4z"/>
	<path fill="#FEEDD9" d="M495.9,278.8c-0.4,1.1,1.7,2.5-0.5,3.3c-1,0.3-1.6-0.5-2.2-1c-1.4-1.1-2.8-2.2-4.5-2.9
		c-1.2-0.5-2.2,0.1-3.2,0.5c-3.5,1.4-7.1,2.5-10.6,3.7c-3.6,1.2-7.1,0.8-10.5-0.4c-2.5-3.1-5.1-6.2-5.8-10.4
		c2.6-3.7,6.2-6.4,9.5-9.3c1.9-1.7,4-3.2,6-4.7c0.8-0.6,1.7-1.5,2.5,0c-0.6,5.7-0.3,11.5-1.3,17.2c-0.2,1-0.3,1.9,0,2.8
		c0.9,0.8,1.1-0.3,1.5-0.6c4.4-4.1,8.6-8.3,13.2-12.2c0.8-0.6,1.4-1.6,2.7-1c1.1,1.3,1,2.9,1.1,4.5
		C494.1,271.9,494.6,275.5,495.9,278.8z"/>
	<path fill="#9A5B52" d="M491.9,263.8c-5.2,4.9-10.5,9.7-15.8,14.6c-0.4,0.4-0.8,0.9-1.3,1c-0.7,0.1-0.4-0.4-0.1-0.7
		c1-5.5,3.7-10.4,5.4-15.6c0.2-0.7,0.6-1.3,1.4-1.5c6-0.1,11.3-2.2,16.1-5.8c0.6-0.5,1.3-1,1.9-1.4c2.1-1.5,3.9-0.9,4,1.7
		c0.1,3.3,1.3,6.6,1.1,9.9c-1.5,5.2-4.1,9.8-7.8,14c-0.7-0.9-0.3-1.8-0.6-2.5c-1-1.4-0.7-2.9-0.5-4.4c0.7-4.2-0.1-8.4,1.1-13
		C494.9,261.5,494,263.5,491.9,263.8z"/>
	<path fill="#B0C488" d="M489.2,277.8c2.4,1,4.3,2.7,6.2,4.3c1.4,0.9,2,2,1.5,3.8c-0.6,2.5-0.7,5.2-1.2,7.8
		c-1.4,7.3-5.5,12.4-12.4,15.3c-0.3,0-0.6,0-1,0.1c-0.8,0.4-1.2,0-1.3-0.8c-0.1-0.6,0.1-1.3,0.3-1.9c2.9-7.8,4.2-16,5-24.2
		c0.1-1.1,0.3-2.2,0.6-3.3C487.4,277.8,488.1,277.3,489.2,277.8z"/>
	<path fill="#F5E3CF" d="M525.6,332.1c-2.2,1.4-4.5,2.7-6.7,4.1c-1,0.7-2.1,1-3.3,1.2c-1.7-1.5-0.5-2.6,0.7-3.4
		c2.3-1.5,4.6-3.1,6.8-4.8c2.2-1.7,2.4-2.3,1.2-4.8c-0.8-1.6-0.6-3.4-1.2-5.1c-0.3-0.4,1-1-0.3-1.4c-0.9-0.3-1.8-0.9-2.7-1.4
		c-0.4-0.3-0.7-0.6-1-0.9c-0.7-0.6-1.4-0.5-2.2-0.3c-1.6,0.4-3.2,0.8-4.8,1.2c-1.2,0.3-2.2,0.7-3,1.9c-1.2,1.8-3.4,1.7-5.3,2.2
		c-0.5,0-1-0.1-1.3-0.6c0.1-0.1,0.1-0.3,0.1-0.4c-0.9-4,3.7-7.5,7.9-7.7c2.4-0.1,4.8,0.4,7.1,0.6c1.5,0.1,2.2-0.3,2.7-1.5
		c3.3,3.4,7.4,5.6,11.3,8.3c1,0.7,2.2,1.3,3.4,1.8c0.6,0.3,1.2,0.6,1,1.4c-0.3,0.8-1.1,0.6-1.7,0.5c-2.9-0.6-5.2-2.7-8.2-4
		c1.6,3.4,3.7,6,6.4,8.2c0.6,0.4,1.5,0.8,1,1.6c-0.5,0.9-1.3,0.1-1.9-0.1c-1-0.4-1.9-0.4-3.2-0.5c0.8,1.2,1.7,2,2.7,2.7
		c0.7,0.5,1.5,1.4,1,2.2c-0.6,1-1.7,0.5-2.5,0.1c-1.5-0.8-2.9-1.7-3.8-3.4C525.7,330.5,525.7,331.3,525.6,332.1z"/>
	<path fill="#F4E2CF" d="M491.9,263.8c1.7-1.8,3.3-3.6,5.4-5.8c-0.4,6.9-0.7,13.2-1.1,19.4c-0.4,0.4-0.3,0.9-0.4,1.4
		c-1.4-0.8-1.7-2.2-1.9-3.7c-0.5-3.4-1-6.7-1.4-10.1C492.5,264.6,492.4,264.1,491.9,263.8z"/>
	<path fill="#78B1BE" d="M541.5,313.8c-0.1,0.4,0.1,1-0.5,1.2c-0.5,0.2-0.8-0.2-0.9-0.6c-0.5-2.1-2.1-1.3-3.2-1c-2.5,0.6-5,1.5-7-1
		c1.6-0.5,3.2-1,4.8-1.4c1.5-0.3,3.8,0.3,3.1-2.7c-0.1-0.5,0.7-0.4,1.1-0.2C540.8,309.6,541.4,311.6,541.5,313.8z"/>
	<path fill="#FFFFFF" d="M594.3,289.4c-3.6-2.2-7-4.9-11.1-6.1c-3.8-1.1-4.9-2.7-4.5-6.6c0.3-3.4-0.1-7-0.1-10.5
		c0-2.4,0.1-2.5,2.4-1.5c1.8,0.7,3.5,1.5,5.3,2.3c0.8,0.8,0.5,1.8,0.4,2.7c-0.1,1,0.4,1.5,1.3,1.7c1,0.2,0.8-0.7,1-1.3
		c0.6-2,1.2-2.1,3.5-0.5c4.5,1.7,4.6,1.7,3.8,6.3c-0.6,3.5-1.1,7-1.1,10.6C595.2,287.5,595.1,288.6,594.3,289.4z"/>
	<path fill="#94A176" d="M613.5,279.8c0,2.2,0,4.5,0,6.7c0.7,1.7,0.7,3.6,0.8,5.4c0.1,9.7,1.4,19.2,2.7,28.8
		c0.1,1.1,0.4,2.2-0.1,3.3c0,0.9-0.6,0.9-1.3,0.9c-2.6,0-5.2,0-7.8,0c-0.7-18,1.8-35.6,5.1-53.2c0.2,0,0.4,0,0.6,0
		C613.5,274.4,613.5,277.1,613.5,279.8z"/>
	<path fill="#F2B577" d="M592.4,269.5c-0.3-0.1-0.7,0-0.9-0.2c-1.7-1.1-2-0.2-1.9,1.3c0,0.6,0.6,1.5-0.1,1.7
		c-1.1,0.3-2.1-0.5-3.1-0.9c-0.9-0.3-0.7-1-0.5-1.6c0.3-1,0.4-2,0.4-3.1c0.8-2-0.1-3.7-0.8-5.4c-0.5-1.5,0.1-1.5,1.2-1
		c1.1,1.4,2.1,2.8,2.5,4.6c1.7-0.8,1.6-2.8,3.2-4.4C592.4,264.1,592.4,266.8,592.4,269.5z"/>
	<path fill="#F5E3CF" d="M588.1,346.9c-1.8-1-3.9-0.4-5.8-0.7c-6.8-0.9-13.5-1.9-20.4-2.2c-1.7-0.1-3.3,0.2-5,0.4
		c-9,1.3-17.4-0.8-25.2-5.2c-2.9-1.6-5.5-3.5-6-7.2c0.4,0,0.9,0,1.2,0.2c7.6,4.3,16,6,24.3,7.8c2.2,0.5,4.6,0.2,6.9,0.1
		c8.6-0.2,17.2,1,25.8,1.3c8.2,0.3,16.4,1.1,24.6,0.2c4.5-0.5,9-0.7,13.5-1.5c3.6-0.6,7-2,10.6-2.9c1.1-0.3,1.9-1.1,2.7-1.9
		c2-2,4-3.9,6-5.8c-1.9,5.6-4.3,11-7.9,15.7c-3,3.9-7.3,5.8-12.1,6.3c-2,0.8-4,1-6.1,0.7c-3.2-0.4-6.3-1-9.4-1.6
		c-0.8-0.2-1.7-0.3-2.3-1.1C598.3,348.8,593.2,347.9,588.1,346.9z"/>
	<path fill="#94A176" d="M603.5,349.8c5.9,0.7,11.7,2.4,17.7,2c-3,2.2-6.7,2.7-10.2,3.3c-1.7,0.3-3.4,0.7-5.2,0.5
		C602.7,355.5,601.9,353.5,603.5,349.8z"/>
	<path fill="#F5E3CF" d="M616.8,323.9c-1.2-5.1-1.7-10.4-2.3-15.6c-0.7-6.5-1-13-1.4-19.6c-0.1-0.8-0.1-1.6,0.4-2.3
		c9.2,0,18.4,0,27.6,0c0.8,0,1.6-0.1,2.3,0.4c-4.3,0-8.6,0.1-13,0c-1.4,0-2,0.3-2,1.9c-0.4,10-1.3,19.9-1,29.9
		c0.1,1.7,0.3,3.3,0.5,5c0.2,1.7-0.4,2.5-2.1,2.2c-2.3-0.4-4.6-0.6-6.9-0.5C617.8,325.4,617.5,324.4,616.8,323.9z"/>
	<path fill="#DDD8AC" d="M576,311c4.2,5.2,9.8,9.2,12,15.8c-6,1.2-12.3,1.3-18,3.4c-5.3,1.9-7.6-1.5-10.2-4.6
		c-1.7-2-3.2-4.2-4.5-6.5c0-1.3,1.1-1.5,1.9-1.7c5.6-1.8,11.1-3.8,16.4-6.2C574.5,310.8,575.2,310.6,576,311z"/>
	<path fill="#F5E3CF" d="M576,311c-6.2,2.7-12.5,5.3-19,7.2c-0.6,0.2-1.2,0.4-1.6,0.9c-1.2-1.6-2.1-3.5-3.7-4.9
		c-1.2-1.1-1-2,0.6-2.6c5.2-2.2,10.3-4.5,15.5-6.8c0.8-0.3,1.7-0.6,2.1-1.5C571.9,305.8,574,308.4,576,311z"/>
	<path fill="#F5E3CF" d="M541.5,313.8c-0.8-1.9-1.7-3.8-2.5-5.7c1.4-1.1,2.4-0.7,3.4,0.6c3.3,4.5,6.1,9.3,8.4,14.4
		c0.5,1-0.1,1.2-1.1,1.1c-4.7-0.5-6.9-3-6.9-8C542.8,315.2,542.4,314.4,541.5,313.8z"/>
	<path fill="#F7E5D2" d="M440.7,272.1c0.1-2.5-0.3-4.9,0.2-7.4c0.4-1.9,0.7-4,2.9-4.6c2.2-0.6,4.2,0.5,5.9,1.9c0.9,0.8,1.3,2,2,2.9
		c1.3,0.7,1.2,1.9,1.2,3.1c0.1,4.7-1,9.1-2.6,13.4c-0.2,1.4,0.4,2.6,0.8,3.9c0.3,1,0.8,1.9,0.3,2.9c-1.4,0.6-1.8-0.5-2.4-1.3
		c-1.8-2.2-3.8-4.2-5.8-6.3c-1.5-0.8-2-2.1-2.1-3.7C441,275.4,440.8,273.7,440.7,272.1z"/>
	<path fill="#B2C589" d="M443.3,280.7c2.6,0.5,3.3,3.1,5.2,4.5c1.1,0.8,1.5,2.4,2.7,3.2c0.8,0,1.4,0.5,1.8,1c1.6,2.1,3.7,3.8,5.1,6
		c0.3,1.1,0.8,2.3-1.1,2.4c-3.5-2.7-6.3-6-9.2-9.2c-0.6-0.6-1.2-1.2-1.8-1.8C444.8,285,444.1,282.9,443.3,280.7z"/>
	<path fill="#9A5B52" d="M449.8,281.6c-0.7-0.4-0.1-0.8,0-1.1c1.8-5,3.3-10.1,1.9-15.6c0.9-1.9,2.9-1.7,4.4-2.4
		c8.1-3.7,16.3-7.4,24.2-11.5c0.3-0.2,0.7-0.3,1.2-0.6c0.2,1.7-1.6,2.2-1.9,3.4c-0.4,1.9-1.8,2.6-3.5,3c-6.2,4.5-12,9.4-17.3,14.8
		c-0.5,1.1-1.3,2-2,2.9c-1.7,1.7-3.1,3.6-4.7,5.3C451.5,280.7,450.9,281.5,449.8,281.6z"/>
	<path fill="#B1685D" d="M455,246.3c0.1-4.3,2.7-6.5,5-8.8c4.3-4.4,9.3-7.9,15.1-10.3c2.1-0.9,4.3-1.6,6.6-2.1
		c0.4-0.1,0.9-0.2,1,0.3c0.1,0.2-0.1,0.6-0.3,0.8c-1.1,1-2.3,2-3.4,3c-6.5,5.8-13.2,11.5-19.3,17.8c-0.9,0.9-1.9,1.8-3.4,1.2
		C455.1,247.8,455,246.8,455,246.3z"/>
	<path opacity="0.55" fill="#F2C9A5" d="M604.1,176.4c3.2-2.9,3.2-6.3,3.5-9.5c0.6-6.2,0-12.2-1.9-18.2c-0.7-2.2-1.6-4.3-2.7-6.3
		c-0.2-0.3-0.4-0.8-0.9-0.6c-0.2,0.1-0.4,0.5-0.4,0.8c-0.1,1.5,0,3-0.1,4.5c-0.2,8.8-0.3,17.5-1.2,26.3c-0.1,1.3-0.1,2.7,1.3,3.3
		C602.9,177.3,603.8,176.7,604.1,176.4z"/>
	<path fill="#B1685D" d="M498.9,238.4c-0.3,5.3-1.3,10.4-4.4,15c-1.2,1.8-2.9,2.3-4.8,1.8c-2-0.6-2.2-2.4-2-4.1
		c0.3-2.8,1.5-5.2,2.8-7.6c1.8-3.2,4.1-6.1,6.3-9c0.8-1,1.4-0.7,1.6,0.3C498.8,236,498.8,237.2,498.9,238.4z"/>
	<path opacity="0.55" fill="#F2C9A5" d="M623.8,102.5c-0.3,5.3-1.3,10.4-4.4,15c-1.2,1.8-2.9,2.3-4.8,1.8c-2-0.6-2.2-2.4-2-4.1
		c0.3-2.8,1.5-5.2,2.8-7.6c1.8-3.2,4.1-6.1,6.3-9c0.8-1,1.4-0.7,1.6,0.3C623.7,100.1,623.7,101.4,623.8,102.5z"/>
	<path fill="#F4E3CF" d="M476.2,257c1.2-1,2.3-2,3.5-3c1.5-1.1,3-2.2,4.8-3.5c-0.4,4-2,7.5-2.9,11.1c-2,5.2-3.9,10.3-5.9,15.5
		c-0.2,0.6-0.2,1.3-0.8,1.7c-0.5-1.8-0.4-3.5,0-5.4C475.6,267.9,475.1,262.4,476.2,257z"/>
	<path fill="#B2C589" d="M569.3,172.7c0.1,0,0.3,0.1,0.4,0.1c1.1,1.3,1.1,3,1.2,4.5c0.4,6.1,1.4,12.2,2.2,18.2
		c0.1,1.1,0.5,2.2-0.5,3.2c-1.1,0.2-2-0.3-2.9-1c-0.2-3.9-0.2-7.8-1-11.6c0-3.6,0-7.3,0-10.9C568.8,174.3,568.7,173.4,569.3,172.7z"
		/>
	<path fill="#FEEDD9" d="M572.7,198.6c-0.7-5.5-1.4-11-2.1-16.5c-0.4-3.1-0.6-6.3-0.9-9.4c2.6,1.5,3.2,4.2,3.9,6.8
		c0.8,2.9,1.6,5.8,4.8,7.2c0.4,0.8,1,1.2,1.8,1.5c0.6,4.9,1.2,9.8,0.2,14.7c-0.3,0.5-0.8,0.9-0.2,1.5c-0.2,1.5-0.3,2.9-0.6,5.1
		c-1.1-1.6-2-2.7-2.6-3.9C576,203.1,574,201.1,572.7,198.6z"/>
	<path fill="#B4C68B" d="M580.5,202.9c0-4.9-1.2-9.8-0.2-14.7c1.1,0.2,1.4,1.1,1.5,2c0.3,4,0.2,8.1-0.6,12.1
		C581.1,202.5,580.7,202.6,580.5,202.9z"/>
	<path fill="#E4806A" d="M450.8,627.2c-4.1-0.8-8.3-0.3-12.5-0.5c-1-0.9-1.3-2.2-1.6-3.4c-4.1-15.7-7.1-31.7-9.2-47.8
		c-1.7-12.9-2.8-25.9-2.3-39c0.5-13.3,2.7-26.3,10.1-37.8c0.3-0.5,0.6-1.1,1-1.6c4.2-5.1,7.6-10.7,10.4-16.2
		c-3.9,3-8.2,6.1-12.2,9.5c-8.8,7.6-15.4,16.6-18.5,28c-0.4,1.6-1.1,3-2.6,3.9c-5.2,2.2-7.3,6.5-8.1,11.8c-1.4,8.6-2,17.2-1.3,26
		c1.1,14.7,3.6,29.2,5.1,43.8c0.5,4.5,0.9,9.1,1.3,13.6c0.2,3.4,1,6.6,1.7,9.9c0.6,3.2,0.1,3.8-3.2,3.9c-5.4-0.5-10.8-0.3-16.2-0.4
		c-0.9,0-2,0-2.3-1.2c1.3-1.9,0.4-3.8-0.1-5.5c-2.7-10.7-3.9-21.6-6.2-32.3c-1.3-6-2.4-12-3.5-18c-1.1-6.7-1.1-13.6-0.5-20.5
		c0.5-5.3,1.4-10.5,2.5-15.8c2.9-13.7,9.9-25.3,18.5-36c7.2-9.1,15.7-17,23.8-25.2c1.5-1.5,3.1-2.8,4.6-4.2
		c5.8-5.2,9.2-11.7,11.2-19.1c2.7-1.1,5.3-0.4,7.7,0.9c8.6,1.1,17.3,1.7,25.9,1.4c5.6-0.2,11.3-0.4,16.8-1.8c3.2,12,3.9,24-0.7,35.8
		c-2.9,7.4-7.7,13.6-13.9,18.7c-6.5,5.3-14,9.3-21,13.9c-1,0.7-1.5,1.5-1.9,2.6c-1.5,4.7-1.4,9.5-0.9,14.3
		c1.3,12.5,1.8,25.1,1.1,37.6c-0.5,9.1-1.3,18.2-2,27.2c-0.5,6.6-0.1,13.3-0.2,19.9C451.5,624.8,451.8,626.2,450.8,627.2z"/>
	<path fill="#D77964" d="M450.8,627.2c0-7.1-0.4-14.3,0.1-21.3c0.6-7.8,0.7-15.7,1.7-23.5c1.1-9.7,1-19.6,0.2-29.4
		c-0.2-2.7-0.2-5.4-0.4-8.1c-0.4-6.6-1.5-13.1,0.2-19.7c0.5-1.9,1.6-2.9,2.9-3.9c5-3.8,10.6-6.8,15.8-10.3
		c9.9-6.7,17-15.5,20.1-27.3c2.4-9.2,1.7-18.4-0.5-27.6c-0.2-0.9-0.3-1.7,0.2-2.5c2.4-0.6,4.9-1.1,6.7-3c0.2-0.6,0.4-1.4,1.4-0.9
		c2.9,3.8,4.6,8.1,5.1,12.9c0.2,2.6,0.5,5.2,0.6,7.8c0.1,7.6,0,15.1,0,22.7c0,1.2,0.2,2.6-0.9,3.6c-5.7,7.8-13.5,12.9-21.8,17.6
		c-8.1,4.6-16.7,7.5-26,8.3c-1.1,0.1-1.9,0.2-1.4,1.7c4.1,12.4,4.6,25.2,4,38.1c-0.4,8.5-1.5,17-1.7,25.5
		c-0.2,9.6-0.5,19.2,0.2,28.7c0.3,3.5,0,7,0.9,10.5c0.3,1.1-0.4,1.2-1.2,1.2c-1.3-0.1-2.5-0.3-3.8-0.4
		C452.5,627.6,451.6,627.4,450.8,627.2z"/>
	<path fill="#E4B279" d="M448.4,454c-2.6-0.3-5.1-0.6-7.7-0.9c-3.9-1.1-7.9-1.9-11.8-3.3c-1.4-0.5-2.4-1.9-4-1.5
		c-1.3-0.6-1.2-1.8-1-2.9c2.3-14.3,1.3-28.5-1-42.7c-0.4-2.5-0.9-5-0.9-7.6c1.8-7,3.7-14,5.4-21c0.8-3.1,2.3-5.7,4-8.4
		c0.3-0.4,0.3-1,0.9-1c0.7,0,0.8,0.7,1,1.2c2.4,5.3,4.4,10.7,5.6,16.5c1.9,9,3.3,18.1,4.6,27.2c1,7.2,1.8,14.5,2.6,21.8
		C446.9,438.8,447.6,446.4,448.4,454z"/>
	<path fill="#DDD8AC" d="M422,395c1.5,2.6,1.3,5.5,1.8,8.3c2.3,11.5,2.1,23.2,2,34.8c0,2.4-0.5,4.8-1.2,7.1c-0.3,1.1-0.3,2,0.2,3
		c-2.2,9-8.9,14.5-15.3,20.2c-0.9-0.2-1.3-0.9-1.6-1.6c-1-2-2.2-3.7-3.6-5.3c-1.4-1.5-1.6-3.1-0.7-5c4.3-9.2,7.1-18.8,9-28.8
		c0.5-2.7,0.7-5.4,0.9-8.1c0.2-2.4,0.7-4.5,1.8-6.6c1.6-3.1,2.7-6.3,3.6-9.6c0.3-0.9,0.4-1.9,1.2-2.6c0.7-0.5,0.4-1.3,0.5-2
		C421.9,397.8,420.8,396,422,395z"/>
	<path fill="#E4B279" d="M498.7,449.7c-0.3,0.3-0.6,0.6-0.9,0.9c-3.5-10-6.1-20.2-7.7-30.7c-1-6.5-2-13-2.8-19.5
		c-0.4-3.3-0.5-6.7-0.5-10c-0.1-8.9-0.1-17.9,0-26.8c0-2.7,0.1-5.4,0.9-7.9c1-0.1,1.8,0.4,2.5,1c1.5,2.5,2.6,5.1,4.4,7.4
		c0.4,0.5,0.5,1.2,0.6,1.8c1.2,7.3,1.8,14.7,2.5,22.1c-2.5,7.9-3.8,16.1-3.8,24.3c0,9.5,1.5,18.8,3.7,28c0.5,2.2,1,4.4,1.3,6.6
		C499.1,447.7,499.4,448.8,498.7,449.7z"/>
	<path fill="#FEEDD9" d="M454.2,327.2c5.6-2,11.2-4.1,16.9-6.1c5-1.8,9.5-4.9,14.8-6c0.5-0.1,1.2-1,1.4,0.2
		c-5.3,9-12.6,14.9-23.6,14.9C460.2,330.1,457.1,329,454.2,327.2z"/>
	<path fill="#FBC688" d="M489.6,356.6c-0.7-0.1-1.4-0.4-1.9-1c-1.2-0.6-0.7-2.1-1.4-2.9c-1.4-1.3-1.4-3.1-1.2-4.7
		c0.5-5.1-0.2-10.4,1.9-15.3c0.9-2,1.7-4.2,4.1-4.9c2.2-0.8,1.5-3.4,2.9-4.7c3.1-1.6,6.5-2,9.9-2.6c0.3-0.1,0.5-0.1,0.8-0.1
		c1.5,0.8,2.2,1.8,1.6,3.6c-0.7,0.9-1.7,1.2-2.6,1.5c-5.9,1.1-9,5.5-11.5,10.3c-3,5.9-3.8,12.1-2.3,18.6
		C490,355.1,490.3,355.9,489.6,356.6z"/>
	<path fill="#E4B279" d="M491.1,327.8c-3.6,3.9-4.9,8.5-4.9,13.8c0,3.7-0.7,7.4,0.1,11.2c-0.1,0.7,0.3,1.7-0.9,1.9
		c-1,0.1-1.5-0.6-1.7-1.4c-0.7-2.5-1-5.1-1.5-7.5c-1-5,0.6-9,2.5-13.1c0.9-2,2.3-3.6,4.3-4.6C489.6,327.5,490.3,326.9,491.1,327.8z"
		/>
	<path fill="#F4BE81" d="M390.3,629.7c0.7,0.6,1.5,0.4,2.3,0.4c5.5,0.1,11-0.2,16.5,0.5c1,1.1,1.5,2.3,1,3.8c0.3,1.1,0.7,2.2,1,3.3
		c-1.2,5.3-4,9.8-6.9,14.3c-4,6.3-8.7,11.9-13.7,17.4c-6.2,6.9-13.6,10.9-23.2,9.5c-3.1-0.4-5.3-2.5-7.5-4.4c-1-0.9-2-1.9-3-2.8
		c0.1-8.3,3.2-15.5,8.2-21.9c3.7-4.8,8.5-8.4,12.7-12.6c1.6-1.6,3.1-3.2,4-5.3c0.5-0.7,0.6-1.6,0.5-2.4
		C384.9,629.7,387.6,629.7,390.3,629.7z"/>
	<path fill="#FEEDD9" d="M420.1,400.7c-0.4,4-1.7,7.9-3.6,11.3c-2,3.5-2.2,7.2-2.6,11c-1,9-3.3,17.6-6.5,26.1
		c-1.1,3-2.4,5.9-3.7,8.8c-0.6,1.3,0.2,2.1,0.8,2.7c2.3,2.2,3.6,5,5,7.8c1.3,3.8,2.2,7.6,2.3,11.6c0.1,1.2,0,2.4-0.8,3.4
		c-1.6,0.2-2-1.1-2.5-2.1c-0.9-2-1.6-4-2.5-5.9c-0.3-0.7-0.4-1.6-1.4-1.8c-1.1,0.8-0.4,2.4-1.4,3.2c-0.3,4.3-0.4,8.7-3,12.4
		c-2.1,0.3-1.7-1.4-2-2.5c-0.8-3.9-0.2-7.9,0-11.9c0-0.6,0.3-1.2-0.1-2c-0.8,0.5-0.9,1.4-1.2,2.2c-1.2,4.1-1.4,8.3-0.5,12.5
		c0.2,0.9,0.7,1.8-0.1,2.7c-1.2-0.3-1.4,0.8-1.9,1.5c-1.3,1.8-2.4,2-4.1,0.4c-0.8-0.7-1.3-1.2-2.3-0.2c-0.9,0.9-2.1,0.9-3.3,0.2
		c0-5.8,0.1-11.5,1.1-17.3c0.7-4.2,2.6-7.6,4.6-11c2.8-4.8,4.5-9.9,4.8-15.3c0.4-7.3,1.8-14.2,5.1-20.7c4.1-7.9,5.8-16.5,7.4-25.1
		c0.8-4.1,0.7-4,4.8-3C415.2,400.1,417.5,401,420.1,400.7z"/>
	<path fill="#F5E3CF" d="M396.5,490.1c-1.8-5.5-1.8-11.1,0.2-16.6c0.4-1,0.5-2.8,2-2.3c1.2,0.4,0.6,1.9,0.5,3
		c-0.5,4.3-0.7,8.5-0.2,12.8c0.1,0.8,0.1,1.8,1.2,2.1C399.3,490.5,398.1,490.9,396.5,490.1z"/>
	<path fill="#F5E2CF" d="M403.3,476.6c0-0.9-0.1-1.8,0.1-2.6c0.2-0.7,0-1.9,1.1-1.9c0.8,0,1.3,0.9,1.6,1.6c1,2.3,2,4.7,2.9,7.1
		c0.4,1.1,0.9,2,2,2.6c-1.3,2-2.7,1.5-4.1,0.1C404.9,481.6,404.5,478.9,403.3,476.6z"/>
	<path fill="#DDD8AC" d="M641.4,616.7c-0.4-1.6-2-1.4-3.1-1.9c-1.7-0.8-3.4-1.3-5.1-1.9c-1.9-1.2-3.1-3.1-4.3-5
		c-0.1-1.2,0.3-2.4,0.2-3.6c0.3-2-0.7-3.6-1.9-5c-0.1-1.8-0.1-3.6,1.1-5.1c2,0.3,3.9,0.7,5.9,0.8c1.6,0,2.1,0.9,2.2,2.2
		c0.1,1.4,0,2.9,0.1,4.3c0.1,1.5,0.5,2.7,2.3,2.7c2.4,0.7,4.8,0.7,7.3,1C647.9,609.1,645.1,615.8,641.4,616.7z"/>
	<path fill="#F5E3CF" d="M641.4,616.7c3.9-2.8,4.7-7,4.8-11.4c3.2,0,6.4,0.2,9.6,0.8c-0.7,6.8-3.2,12.8-7.7,17.9
		c-0.4,0.3-0.9,0.3-1.4,0.1c-2.8-1.5-5.9-2.2-9-2.7c-0.2,0-0.4-0.3-0.5-0.4C638.5,619.6,640,618.1,641.4,616.7z"/>
	<path fill="#FEEDD9" d="M628.3,594.3c-0.1,1.7-0.3,3.5-0.9,5.1c0.7,1.3-0.2,2.3-0.8,3.2c-1.4,2.5-3.4,4.7-5.1,7
		c-1.2,1.4-2.5,2.8-3.4,4.4c-0.4,0.6-0.7,1.5-1.7,1.1c-1.1-1.3-2.4-2.5-2.9-4.2c-0.5-0.9-0.2-1.7,0.2-2.5c1.6-3.6,2.4-7.4,3.1-11.3
		c0.7-3.7,0.7-3.7,4.5-3.2C623.6,594.2,626,594.2,628.3,594.3z"/>
	<path fill="#F5E3CF" d="M621.3,594.1c-2.4-0.4-3.5,0.4-3.8,3c-0.5,4.9-2.1,9.4-4,13.9c-2.2-2.8-4.6-5.4-8.1-6.9
		c0.1-0.1,0.1-0.3,0.3-0.4c4.2-2.4,4.7-6.3,4-10.6C613.6,593,617.4,593.3,621.3,594.1z"/>
	<path fill="#F2B577" d="M637.1,621c4-0.3,7.5,1.3,10.9,3c2.1,2.1,4.3,4.1,5.4,7c-0.2,0.8-0.4,1.5-0.5,2.3c-0.2,2.1-0.2,4.1,2.3,5.2
		c-3.3,2-6.8,2.6-10.1,3c-8.3,1-16.6,0.9-24.8,0c-2.7-0.3-5.3-1.3-7.3-3.3c-0.9-2.9,0.4-6.7,3.3-7.8c5.3-2.1,10.1-4.9,14.9-8
		C632.9,621.4,635,621,637.1,621z"/>
	<path fill="#E0A76C" d="M616.4,615.2c1.8-1.7,2.6-4.3,4.7-5.8c2-2.4,5.1-3.2,7.2-5.4c0.4-0.4,1-0.3,1.5,0.2
		c0.2,1.3-0.1,2.6-0.5,3.8c-0.6,5.2-3.8,9.1-6.4,12.7c2.7-1.4,5.9-2.7,9.2-4c0.5-0.2,1-0.4,1.6-0.1c0.4,2.1-0.7,3.5-2.4,4.2
		c-8.2,3.4-15.5,8.7-23.9,11.6c-7.2,2.5-14.8,3.1-22.4,1.8c-6.1-1.1-10.1-6.3-9.9-12.3c0-0.6,0-1.1,0.4-1.6c-0.2,1.9,0.8,3,2.1,4.2
		c3.4,3,7.6,3.6,11.9,4c10.2,0.8,19.9-1.6,29.3-6C614.4,621.4,616,618.1,616.4,615.2z"/>
	<path fill="#F2B577" d="M633.7,616.7c-4.1,1.8-8.2,3.6-12.3,5.3c2.7-2.9,4.1-6.6,6.3-9.8c0.8-1.2,0.1-3.2,1.6-4.2
		c1.7,1.3,3,2.9,3.9,4.8C633.2,614.2,633.9,615.4,633.7,616.7z"/>
	<path fill="#FEEDD9" d="M503.6,324.9c0.8-0.3,1.6-0.7,2.4-1c2.4-0.3,3.2,2,4.7,3c1,0.9,1.7,2,2.3,3.3c0.5,1.2,1.3,1.3,2.3,0.6
		c0.8-0.5,1.6-1,2.5-1.4c1.7-0.9,2.5-2.1,1.4-4c0-0.3,0-0.7,0.2-0.9c1.3-1.6,0.4-2.1-1.1-2.5c-0.8-0.2-2-0.3-1.5-1.8
		c2.1-1,4.2-2.1,6.6-1.1c0.1,0,0.2,0,0.2,0.1c0.7,2.9,2.3,5.5,2.2,8.6c0,1-0.9,1.3-1.5,1.7c-2.5,1.8-4.7,3.8-7.5,5.1
		c-1.3,0.7-1.7,1.5-1.1,2.9c3.7,10.7,5.6,21.7,6.8,32.9c0.9,8.4,1,16.8,1.5,25.2c0.5,8.1,0.8,16.2,0.2,24.1
		c-0.6,7.6,1.5,14.8,1.7,22.3c0.2,12-0.8,23.8-3.3,35.6c-0.1,0.6-0.1,1.3-0.1,1.9c0.3,1,0.1,1.9-0.1,2.8c-0.8,3.8-1.7,7.6-2.5,11.4
		c-0.2,0.9-0.4,1.9-1.2,2.5c-1.4,2.6-0.4,5.3,0,7.9c1.5,9.8,1.6,19.7,1,29.6c-0.1,2.2-0.3,4.5-0.6,6.7c-0.7,5.7-4.9,8.9-9.2,11.8
		c-1.6,1-2.6,2.6-4,3.7c-1.4,1.1-2.7,1.6-3.5-0.6c-1-0.7-0.6-1.5-0.1-2.3c3.3-5,5-10.7,6.3-16.5c0.6-2.5,0.5-4.9-1.2-7
		c-1.7-2.1-2.2-4.8-3.2-7.2c-0.3-0.8-0.3-2.4-2-1.9c-0.8,1.7-1.5,3.5-2.3,5.2c-0.3,0.8-0.5,1.7-1.4,2.1c-1.2,1.8-1.7,4.1-3.7,5.4
		c-1.8,0.5-1.6-0.9-1.7-1.8c-0.3-2.3,0.2-4.5,0.9-6.6c1.1-3.4,2.2-6.7,3.2-10.1c1.5-5.2,4.5-9.5,7.9-13.6c1.3-1.5,2.1-3.2,2.5-5.1
		c2-7.5,2.4-15.2,3.1-22.8c0.9-9,1.1-18,1-27.1c0-9-0.8-17.8-3-26.6c-2.9-11.6-3.9-23.5-5.7-35.3c-1.2-7.8-2.6-15.6-5.3-23.1
		c-1.7-4.7-0.9-9.5-0.9-14.3c0-6.9,1.8-13.4,5.1-19.5C502.2,326.4,502.7,325.5,503.6,324.9z"/>
	<path fill="#7E8A64" d="M518.4,496.2c1.2-5.6,2.1-11.3,3.9-16.8c5.5,0.4,11.1,0.7,16.6,1.1c1.2,0.1,2.4,0.1,3.1,1.4
		c-0.7,2.5-3.2,2.9-5,4c-5.8,3.6-11.8,6.9-17.7,10.3C519,496.3,518.7,496.5,518.4,496.2z"/>
	<path fill="#F5E3CF" d="M503.6,324.9c-0.9,3.1-2.6,5.8-3.8,8.7c-1.7,4.4-2.1,9-2.4,13.6c-0.4,6.6,0.4,13.1,2.6,19.5
		c3,8.7,3.7,17.9,5,26.9c1.5,10.9,3.1,21.9,5.8,32.6c1.2,4.5,1.1,9.2,1.3,13.7c0.3,6.8,0.3,13.6,0,20.4c-0.3,6.9-1,13.8-1.7,20.6
		c-0.4,3.6-1,7.2-1.4,10.9c-0.5,5.1-2.8,9.1-6,12.9c-3.2,3.7-5,8.1-6.2,12.8c-1,3.6-2.7,7-3.1,10.8c-0.2,1.6-1.2,3.6,0.8,5
		c-1.3,1-2.2-0.1-3.3-0.5c-0.7-0.3-1.2-0.9-1.2-1.7c-0.3-7.9,1.5-15.1,6.4-21.3c2.4-3.3,4.5-6.8,7.4-9.6c1.1-1.1,0.2-2.3,0.2-3.4
		c0.1-9,0.1-18,0.2-27c0.3-5.4-0.6-10.8-0.5-16.2c0.1-7.7,0.4-15.5,0.9-23.2c0.1-1.9,0-3.7-0.6-5.4c-3.1-9.6-4.6-19.6-6.8-29.4
		c-0.6-2.6-0.6-5.2,0-7.8c-0.8-6.4-1.6-12.7-2.3-19.1c-0.3-2.4-0.6-4.6-2.5-6.4c-1.5-1.5-2-3.8-2.8-5.7c-2.9-10.9-0.7-20.4,7.2-28.5
		C498.7,326.2,500.8,324.9,503.6,324.9z"/>
	<path fill="#8E9C71" d="M468.1,613.4c-0.1,6.7,0.3,13.3,0.9,20c0.5,5.1,0.4,5.1-4.3,4.9c0.3-8.6-0.4-17.2-0.6-25.9
		c-0.1-7.6-0.5-15.1-0.9-22.7c-1-18-0.9-36.1-0.9-54.1c0-2.4,0.2-4.9,1-7.2c1.1,3.1,1.3,6.3,1.4,9.6c0.3,9.5,0.8,18.9,1,28.4
		c0.2,7.7,0.5,15.4,1,23.1C467.3,597.5,467.3,605.4,468.1,613.4z"/>
	<path fill="#F5E3CF" d="M501.2,519.9c0.6-1.1,1.3-1,2.1-0.1c0.7,0.7,1.1,1.6,1.3,2.5c0.9,3,2.1,5.9,4.1,8.5
		c1.2,1.6,0.8,3.5,0.4,5.3c-1.2,5.6-2.8,11-5.5,16.1c-0.5,1-2.2,1.6-1.4,3.2c-3.4-0.1-3.4-0.1-3.4-4.8c-0.6-0.7-0.3-1.5-0.1-2.3
		c0.2-1,0.5-2,0.9-3c3-7.1,3.4-14.4,2.2-21.8C501.5,522.2,501.7,521,501.2,519.9z"/>
	<path fill="#8F9C73" d="M501.2,519.9c0.9,0.3,0.8,1.1,1,1.8c1.4,8,1.4,15.8-1.8,23.4c-0.7,1.7-1.1,3.6-1.7,5.5
		c-0.9,0.8-0.1,2-1.1,3.5c-0.5-2.8-0.5-5.3-0.2-7.6c0.7-6.2,1.1-12.4,0.8-18.6C499.2,525.1,500.2,522.5,501.2,519.9z"/>
	<path fill="#8F9D73" d="M496.4,509.7c-2.6,4.9-4.8,9.9-5.6,15.5c-0.4,2.5-0.7,5.1,0.3,7.5c-2-0.3-2.3-1.8-2.5-3.5
		c-0.5-6.1,0.9-11.6,4.7-16.5c0.3-0.4,1.1-0.8,0.6-1.6C494.5,510.2,495.4,509.8,496.4,509.7z"/>
	<path fill="#D77964" d="M413.3,521.6c1.2-0.7,1.6-1.9,1.9-3.2c2.3-8.8,6.8-16.4,13-23.1c6-6.4,13.1-11.5,20.3-16.5
		c-3.3,5.6-6.1,11.4-10.1,16.6c-5.8,7.3-8.9,15.8-10.8,25c-2,9.9-2.2,19.8-1.8,29.8c0.5,11.5,1.8,22.9,3.6,34.3
		c2.2,14.1,4.9,28,8.8,41.8c0,0.1,0,0.3,0,0.5c-1.3,0-2.6,0.1-3.9,0.1c-0.1,0.2-0.2,0.2-0.4,0c-1.7-0.2-3.4-0.1-5,0.5
		c-2.3,1.7-3.1,1.3-3.6-1.5c-0.9-5.3-1-10.7-1.4-16c-1.2-15.6-3.1-31-6.4-46.3c-2.4-10.8-3.9-21.7-4.6-32.7c-0.1-1-0.1-1.9,0-2.9
		C413,525.9,412.8,523.7,413.3,521.6z"/>
	<path fill="#8E9C71" d="M413.8,527.9c0.4,14.2,3.2,28.2,5.9,42.1c2,10.1,3.5,20.2,4.2,30.5c0.6,8.3,1.6,16.5,2.2,24.7
		c0.2,2.4,0.7,3,2.9,2.1c-0.5,3.2-2.4,5.6-4.2,8.1c-2.4,0-4.8,0.1-7.2-0.5c-0.5-0.5-0.7-1.2-0.8-2c-1.8-11.9-3-23.9-3.9-35.9
		c-0.4-5.8-0.9-11.6-1.4-17.4c-0.7-7.5-1-15-0.9-22.5c0.1-8.7-0.1-17.4,0.5-26.1C411.3,528.2,411.7,527.6,413.8,527.9z"/>
	<path fill="#FFFEFE" d="M434,626.9c0.1,0,0.2,0,0.4,0c0.6,0.3,1.2,0.5,1.6,1c2.2,2.1,4.4,2.1,6.8,0.3c0.6-0.4,1.5-0.8,1.9-0.1
		c0.5,0.8-0.5,1.2-1.1,1.5c-0.5,0.3-1,0.5-1.5,0.7c-1.1,0.5-1.5,1-0.5,2.1c0.9,0.9,1.5,2,2.4,3.4c-2.1,0-3.6,1.1-5.2,1.8
		c-1,0.5-1.1,0.9-0.4,1.8c0.9,1.2,1.8,2.4,2.8,3.8c-2.1,0.7-4,1.4-6,1.9c-2,0.4-1.9,1.4-0.8,2.6c1.8,1.9,1.1,2.4-1.1,2.9
		c-1.8,0.4-3.4,1.3-5.1,2c-0.3,0.1-0.8,0.2-0.8,0.7c-0.1,1.1,2.2,3.7,3.5,3.8c-0.3,1.8-1.9,1.8-3.2,2.2c-1.3,0.4-2.6,0.8-4,1.3
		c1.5,2.2,2,4.9,4.6,6.2c0.7,0.4,1.6,1.3,0.9,2.1c-0.8,0.9-1.3-0.3-1.9-0.7c-3.8-2.9-7.9-4.4-12.7-3.3c-0.5,0.1-1.1,0.6-1.5-0.1
		c-0.4-0.8,0.4-1.1,0.9-1.4c1.8-0.9,3.7-1.9,5.6-2.7c1.1-0.5,1.3-0.9,0.4-1.8c-0.8-0.9-2-1.8-1.7-3.6c1.6,0.8,2.3,2.1,3.3,3.2
		c0.8,0.9,5.8,0.4,6-0.7c0.3-1.3-0.8-2.2-1.3-3.2c-0.4-0.8-1.1-0.7-1.9-0.4c-1.3,0.4-2.6,1.5-4.4,0.9c0.9-1.1,2-1.4,3-1.6
		c2-0.5,2-1.4,0.8-2.8c-0.4-0.5-0.7-1-1.1-1.6c-0.2-0.3-0.4-0.8-0.1-1.1c0.5-0.4,0.9,0.1,1.3,0.2c0.4,0.2,1,0.3,1.2,0.8
		c1.2,2.4,3,2.1,5,1.2c0.7-0.3,1.9-0.4,1.6-1.6c-0.3-1.1-1.3-0.9-2.2-0.8c-0.9,0.2-1.7,0.4-2.6,0.5c-1,0.1-2,0.3-3.1-0.1
		c0-1.4,1-1.4,1.9-1.7c1.4-0.4,2.8-0.4,4.1-1.1c0-0.2,0-0.4-0.1-0.5c-0.6-1-2-1.4-2.1-2.6c-0.1-1.7,1.9,0.3,2.3-1.2
		c0.1-0.5,1.1-0.8,1.8-1.1c2.8-1.5,2.8-1.5,0.8-4c-0.9-1.1-0.7-1.9,0.4-2.6c0.2-0.1,0.4-0.2,0.6-0.3c1.1-0.6,2.9-0.8,3.1-1.9
		c0.2-1.1-1.6-1.4-2.5-2.2C433.6,628.2,433.3,627.7,434,626.9z"/>
	<path fill="#808D67" d="M413.8,527.9c-1.3-0.1-1.8,0.5-1.9,1.9c-0.7,13-0.8,26-0.4,39c0.3,10.5,1.5,20.9,2.4,31.4
		c0.9,10.4,1.6,20.9,3.6,31.2c0.2,1.2,0.1,2.4,0.1,3.6c-2.6-0.2-5.1-0.3-7.7-0.5c-0.6-1.2-0.8-2.5-1-3.8c2.9-0.1,2.9-0.1,2.2-2.8
		c-1.7-6.5-1.8-13.2-2.6-19.9c-0.9-7.4-1.7-14.9-2.6-22.3c-1-8.5-2.4-17-2.9-25.6c-0.6-9.4,0-18.6,1.7-27.8c1-5.2,3.7-8.7,8.6-10.6
		C414.4,523.7,413.7,525.8,413.8,527.9z"/>
	<path fill="#BFD594" d="M457.1,298c1.2-0.6,0.9-1.5,0.4-2.4c1.4-4.2,2.9-8.4,4.8-12.4c0.5-0.7,1-1.4,1.9-1.5
		c7.7,2.2,14.4-1.2,21.2-3.7c1.3-0.5,2.5-1.1,3.8-0.2c-1.1,0-1.4,0.6-1.5,1.6c-1,6.1-1.4,12.2-2.8,18.2c-0.8,3.2-1.9,6.2-2.8,9.3
		c-0.2,0.6-1.3,1.6,0.3,2.1c-5.3,1.9-10.5,1.6-15.7-0.6c-3.1-1.3-5.9-3.1-8.7-4.9c-1.6-1.1-2.8-2.2-1.3-4.2
		C457,299,457,298.4,457.1,298z"/>
	<path fill="#B2C58A" d="M464.2,281.7c-0.3,0.7-0.9,1.1-1.5,1.4c-2.3-1.1-3.1-3.5-4.5-5.4c-0.7-1-2.1-1.9-1.7-3.5
		c0.4-1.1,1.4-1.8,2.3-2.5C460,275.4,462.6,278.3,464.2,281.7z"/>
	<path fill="#6CA9B6" d="M523.2,319.1c-2.3,0.3-4.5,0.8-6.7,1.5c-2.5,1.5-5,2.5-7.8,0.8c-1.3-0.8-2.9,0.2-4.2-0.6
		c-0.2,0-10.9,2.7-11.1,2.6c0-0.2,0-0.5,0-0.6c1-0.6,12.7-3.5,13.8-3.8c0.5-0.1,1.2-0.2,1.4-0.8c0.2-0.9,0.3-1.7,1.4-1.9
		c3-0.5,5.9-1.9,9-1.9c0.2,0,0.5,0.6,0.7,0.9c-1.1,1.5-2.9,1.1-4.3,1.7c-0.9,0.4-2,0.5-2.8,0.8c2.5-0.4,4.9-1.9,7.7-1.6
		c1,0.5,2,0.9,3,1.4C524.6,318.2,523.7,318.7,523.2,319.1z"/>
	<path fill="#8DCFE3" d="M520.5,316.2c-5.8,2.1-8.1,2.6-10.3,1.9c3.2-1.6,6.6-1.8,9.6-2.9C520,315.6,520.3,315.9,520.5,316.2z"/>
	<path fill="#FEEDD9" d="M456.5,274.3c2.1,2.9,4.1,5.9,6.2,8.8c-1.4,4-2.9,8-4.4,12c-0.1,0.2-0.5,0.3-0.8,0.4
		c-2.1-2.4-4.2-4.7-6.3-7.1c0-1.7-0.7-3.2-1.3-4.7c-0.3-0.8-0.5-1.4-0.1-2.2C452,279.2,454.3,276.8,456.5,274.3z"/>
	<path fill="#DDD8AC" d="M497.3,387.8c0.1,8.2,2.9,16,4.2,24c0.7,4.4,2,8.7,3.4,12.9c0.6,1.9,0.8,3.8,0.7,5.7
		c-1,12.3-1,24.7-0.9,37.1c0,0.8,0.2,1.6-0.3,2.3c-0.3-2.7-0.5-5.5-0.8-8.2c-0.4-4.4-2.7-8-4.8-11.8c-2-11.4-5.1-22.6-5.3-34.4
		C493.2,405.9,494.1,396.7,497.3,387.8z"/>
	<path fill="#F5E4D0" d="M504.6,320.8c0.9-0.2,1.9-0.4,2.8-0.6c0.5-0.1,1.2-0.3,1.4-0.1c2,3,4.4,0.7,6.6,0.6c0.4,0,0.8-0.1,1.2-0.1
		c0.8,0.7,1.9,0.8,2.9,1c1.9,0.5,2.1,1.2,0.6,2.5c-0.4,0.4-0.6,0.7-0.6,1.2c-0.3,0.3-0.6,0.6-1,0.6c-2.8,0.1-5.5,0.3-8.1,1.3
		c-1.6-0.9-2.5-2.8-4.4-3.4C506.4,322.5,505.3,321.7,504.6,320.8z"/>
	<path fill="#FFFEFE" d="M383.1,644.5c-0.6-0.9-1-1.5-1.3-2.1c-0.3-0.7-1.8-1.7,0.9-1.7c1.6,0,3.8-1.2,5.5-2.4
		c-0.6-1.6-2.7-1.9-3.1-3.7c1.6-0.4,2.5,0.7,3.4,1.4c1.2,1,2.2,0.9,3.4,0c1.3-1.1,2.6-2.1,4-3.1c0.4-0.3,0.9-0.6,1.3-0.1
		c0.4,0.5-0.1,0.9-0.4,1.2c-1.4,1.2-2.8,2.3-4.2,3.5c-0.4,0.3-1.2,0.5-0.9,1.2c0.3,0.6,0.7,1.3,1.6,1.3c0.6,0,1.6-0.4,1.2,0.6
		c-0.3,0.6,0.5,2.3-1.6,1.9c-2.4-0.4-4.4,1.2-6.2,2.6c-1.3,1,0.2,2.5,0.7,3.6c0.8,1.7,0.7,2.2-1.2,2.5c-1.9,0.4-3.7,1-5.6,1.4
		c-0.8,0.2-1.8,0.4-1.2,1.5c0.6,1-0.5,3,1.7,3.1c0.6,0,1.3-0.2,1.4,0.5c0.1,0.8-0.8,1-1.4,1.1c-2,0.5-4,1-6.1,1.4
		c-1.2,0.2-1.4,0.8-0.8,1.8c0.8,1.6,1.6,3.3,2.4,4.9c0.2,0.5,0.3,0.9-0.1,1.3c-0.4,0.3-0.9,0.1-1-0.2c-2.3-4.2-6.3-4.3-10.6-4.2
		c1.2-2.1,3-3.1,5-3.7c1.1-0.3,1.3-0.8,0.8-1.9c-0.7-1.4-2.2-3.1-1.5-4.3c0.5-0.9,2.7-0.8,4.2-1.2c0.2,0,0.3-0.1,0.5-0.1
		c3.1-0.7,3.1-0.7,1.4-3.6c-0.4-0.6-0.7-1.3-1-1.9c-0.2-0.6-0.1-1.1,0.8-0.9C377.8,646.7,380.1,644.7,383.1,644.5z"/>
	<path fill="#F2B577" d="M629.8,604.2c-0.5,0.1-1.1,0-1.3,0.3c-1.8,2.6-5,3.3-7.4,4.9c1.6-2.3,3.2-4.6,4.9-6.9c0.7-1,1.3-2,1.5-3.2
		C629.9,600.2,629.9,602.2,629.8,604.2z"/>
	<path fill="#CC9864" d="M620.7,618.2c0.1,1.5-0.8,2.2-2.1,2.3c-1,0.1-1.2-0.8-1.2-1.7c0-1.4,0.4-2.4,2-2.5
		C620.5,616.2,620.7,617.1,620.7,618.2z"/>
	<path fill="#CC9864" d="M658.6,633.5c0.1,1.5-0.8,2.2-2.1,2.3c-1,0.1-1.2-0.8-1.2-1.7c0-1.4,0.4-2.4,2-2.5
		C658.3,631.6,658.6,632.5,658.6,633.5z"/>
	<path fill="#DED8AC" d="M510.3,327.3c2.5-3,6-1.6,9.1-1.9c1.5,1.6,1.5,2.6-0.4,3.9c-1.5,1-3.1,1.9-4.7,2.9
		c-1.1,0.7-1.3-0.2-1.5-0.8C512.1,329.9,511.3,328.5,510.3,327.3z"/>
	<path fill="#F4BE81" d="M423.9,647.9c2.2-0.5,4.5-1,6.7-1.4c1.4-0.3,1.7,0.9,2.2,1.8c0.6,1.1-0.4,1.3-1.1,1.7
		c-0.3,0.1-0.6,0.3-0.9,0.4C425.3,652,427.3,652.7,423.9,647.9C423.9,647.9,423.9,647.9,423.9,647.9z"/>
	<path fill="#F4BF84" d="M430.2,642.2c1.7-0.9,3.3-1.9,5.1-2.6c1.9-0.7,2.4,1.3,3,2.3c0.8,1.3-0.8,1.1-1.4,1.4
		c-0.6,0.3-1.4,0.4-2,0.7C432.8,645,431.4,644.2,430.2,642.2z"/>
	<path fill="#F4BF85" d="M433.7,634.8c1.4-0.6,2.7-1.2,3.9-1.9c0.9-0.5,1.6-0.5,2.3,0.3c1,1.1,1.1,1.7-0.4,2.6
		C437.3,637.2,435.5,637,433.7,634.8z"/>
	<path fill="#F6C691" d="M419.1,662.7c2.8-1.9,3-1.9,4.7,0.8C422.1,663.3,420.7,662.4,419.1,662.7z"/>
	<path fill="#F4BF83" d="M383.2,646c1.6,0.1,1.5,1.6,1.9,2.6c0.6,1.2-0.5,1.3-1.1,1.5c-1.4,0.5-2.9,0.8-4.3,1.3
		c-1.1,0.4-1.5,0-2.1-0.9c-1.5-2.6-1.6-2.6,1.4-3.4C380.4,646.7,381.8,646.4,383.2,646z"/>
	<path fill="#F4BF83" d="M370.8,654.7c1.4-0.3,2.7-0.7,4.1-1c2.3-0.4,3.3,0.5,3.3,2.8c0,0.7-0.2,1-0.8,1.3c-0.1,0.1-0.3,0.1-0.5,0.1
		C372.7,659.5,372.4,659.3,370.8,654.7z"/>
	<path fill="#F5C086" d="M383.4,641.8c1.8-0.7,3.7-1.4,5.5-2.1c0.8-0.3,1.2,0.1,1.6,0.6c0.6,1-0.4,1-0.9,1.3
		c-0.8,0.5-1.8,0.8-2.6,1.3C385.4,644,384.2,643.8,383.4,641.8z"/>
</g>
</svg>
